<svg width="56" height="61" viewBox="0 0 56 61" fill="none" xmlns="http://www.w3.org/2000/svg">
<path fill-rule="evenodd" clip-rule="evenodd" d="M20.8922 44.4511C20.7422 41.7011 20.4922 39.0011 20.4422 36.3511C20.4422 36.1522 20.3631 35.9615 20.2225 35.8208C20.0818 35.6801 19.8911 35.6011 19.6922 35.6011C19.4932 35.6011 19.3025 35.6801 19.1618 35.8208C19.0212 35.9615 18.9422 36.1522 18.9422 36.3511C18.5922 39.0011 18.2672 41.7511 18.1422 44.5511V48.0761V49.9511L10.9672 49.3511C8.46715 49.1261 8.76715 49.3511 8.89215 47.9011C8.89215 47.3511 8.89215 46.8761 9.09215 46.4261C9.29215 45.2011 9.56716 44.2511 9.84215 42.7011L10.9422 36.1511C10.98 35.956 10.9414 35.7538 10.8344 35.5863C10.7274 35.4188 10.5601 35.2988 10.3672 35.2511C10.2703 35.2291 10.17 35.2265 10.0721 35.2435C9.97417 35.2606 9.88063 35.2969 9.7969 35.3504C9.71316 35.4039 9.64089 35.4735 9.58428 35.5552C9.52767 35.6368 9.48786 35.7289 9.46715 35.8261L7.51715 42.1511C7.11715 43.4511 6.74215 44.3011 6.46715 45.2761C6.26737 46.0563 6.12532 46.8501 6.04215 47.6511C5.93829 48.2548 5.8715 48.8643 5.84215 49.4761C5.8355 49.8257 5.92177 50.1708 6.09215 50.4761C6.48505 51.1148 7.11381 51.5729 7.84215 51.7511C8.8776 51.9659 9.9393 52.0249 10.9922 51.9261L18.2922 51.7261C18.4922 54.4511 18.8172 57.1011 19.0922 59.6261C19.0919 59.7388 19.1148 59.8503 19.1594 59.9538C19.2039 60.0573 19.2692 60.1506 19.3512 60.2279C19.4332 60.3052 19.5301 60.3649 19.6361 60.4033C19.742 60.4417 19.8547 60.458 19.9672 60.4511C20.1948 60.4382 20.4085 60.3369 20.5626 60.1688C20.7167 60.0007 20.799 59.7791 20.7922 59.5511C20.7922 57.0511 20.9422 54.2261 20.9672 51.4011V47.9261C20.9672 46.7511 20.9672 45.5011 20.8922 44.4511Z" fill="#F6E7B1"/>
<path fill-rule="evenodd" clip-rule="evenodd" d="M47.3675 48.4754C46.8319 48.161 46.2352 47.9649 45.6175 47.9004C43.6453 47.7519 41.6647 47.7519 39.6925 47.9004C39.5807 47.9098 39.4719 47.9412 39.3724 47.9929C39.2728 48.0446 39.1844 48.1155 39.1124 48.2015C39.0404 48.2874 38.986 48.3869 38.9526 48.4939C38.9192 48.601 38.9072 48.7136 38.9175 48.8254C38.9201 48.9373 38.9462 49.0474 38.9941 49.1486C39.0419 49.2498 39.1105 49.3398 39.1953 49.4129C39.2801 49.4859 39.3793 49.5403 39.4865 49.5726C39.5937 49.6049 39.7065 49.6144 39.8175 49.6004C41.8351 49.5344 43.8542 49.6769 45.8425 50.0254C45.985 51.2157 45.8126 52.4225 45.3425 53.5254C44.9004 54.7503 44.1096 55.8192 43.0675 56.6004C41.1968 57.6947 38.9762 58.026 36.8675 57.5254C35.8255 57.3717 34.8327 56.9807 33.9658 56.3826C33.0989 55.7844 32.381 54.995 31.8675 54.0754C31.3431 52.9594 31.0465 51.75 30.9949 50.5181C30.9434 49.2861 31.1381 48.0562 31.5675 46.9004C32.3202 44.4097 33.8541 42.2272 35.9425 40.6754C37.1571 39.8526 38.5577 39.3457 40.0175 39.2004C40.6991 39.0785 41.3991 39.107 42.0684 39.2841C42.7378 39.4612 43.3604 39.7824 43.8925 40.2254C43.9624 40.2972 44.046 40.3543 44.1383 40.3932C44.2306 40.4322 44.3298 40.4523 44.43 40.4523C44.5302 40.4523 44.6294 40.4322 44.7217 40.3932C44.8141 40.3543 44.8976 40.2972 44.9675 40.2254C45.1049 40.0852 45.1819 39.8967 45.1819 39.7004C45.1819 39.504 45.1049 39.3156 44.9675 39.1754C43.9034 38.0891 42.4623 37.4536 40.9425 37.4004C38.7862 37.2988 36.6452 37.8102 34.7675 38.8754C32.1527 40.5778 30.1544 43.0756 29.0675 46.0004C28.4785 47.5274 28.2121 49.1598 28.2853 50.7949C28.3584 52.4299 28.7695 54.0321 29.4925 55.5004C30.177 56.8111 31.1566 57.9449 32.354 58.8126C33.5513 59.6803 34.9338 60.258 36.3925 60.5004C37.7909 60.7825 39.2314 60.7841 40.6305 60.5052C42.0295 60.2262 43.3593 59.6723 44.5425 58.8754C45.9574 57.7446 47.0093 56.2234 47.5675 54.5004C48.2069 52.779 48.3029 50.903 47.8425 49.1254C47.7512 48.8669 47.5861 48.6408 47.3675 48.4754Z" fill="#F6E7B1"/>
<path fill-rule="evenodd" clip-rule="evenodd" d="M31.9183 25.7256C33.0921 25.9987 34.2001 26.5017 35.1785 27.2054C36.1568 27.9091 36.9861 28.7997 37.6183 29.8256C37.6709 29.9241 37.7423 30.0113 37.8285 30.0822C37.9147 30.1531 38.0141 30.2063 38.1209 30.2388C38.2276 30.2713 38.3398 30.2824 38.4509 30.2716C38.562 30.2607 38.6699 30.2281 38.7683 30.1756C38.8693 30.1257 38.959 30.0556 39.0318 29.9698C39.1047 29.8839 39.1592 29.784 39.192 29.6763C39.2247 29.5685 39.2351 29.4552 39.2225 29.3433C39.2098 29.2314 39.1744 29.1233 39.1183 29.0256C38.515 27.6533 37.632 26.4219 36.5256 25.4103C35.4193 24.3987 34.1141 23.629 32.6933 23.1506C30.2548 22.3665 27.6319 22.3665 25.1933 23.1506C22.3912 24.0648 19.9669 25.8742 18.2933 28.3006C18.2215 28.3705 18.1644 28.4541 18.1255 28.5464C18.0865 28.6387 18.0664 28.7379 18.0664 28.8381C18.0664 28.9383 18.0865 29.0375 18.1255 29.1298C18.1644 29.2221 18.2215 29.3057 18.2933 29.3756C18.4377 29.5146 18.6304 29.5923 18.8308 29.5923C19.0313 29.5923 19.2239 29.5146 19.3683 29.3756C21.1195 27.6125 23.3564 26.4114 25.7933 25.9256C26.8104 25.6833 27.8486 25.541 28.8933 25.5006C29.9071 25.4495 30.9233 25.525 31.9183 25.7256Z" fill="#F6E7B1"/>
<path fill-rule="evenodd" clip-rule="evenodd" d="M8.76796 23.0006C12.0919 19.166 16.5184 16.4508 21.443 15.2256C23.5341 14.6849 25.6831 14.3995 27.843 14.3756C29.9638 14.3473 32.08 14.5824 34.143 15.0756C39.0446 16.3142 43.3863 19.1676 46.468 23.1756C46.5327 23.2686 46.6154 23.3478 46.7112 23.4084C46.8071 23.4689 46.914 23.5098 47.0258 23.5284C47.1376 23.547 47.2521 23.5431 47.3623 23.5169C47.4726 23.4906 47.5765 23.4426 47.668 23.3756C47.8465 23.2369 47.9644 23.0345 47.9971 22.8108C48.0297 22.5871 47.9745 22.3595 47.843 22.1756C44.983 17.8282 40.777 14.538 35.869 12.8087C30.961 11.0794 25.6215 11.0063 20.668 12.6006C15.3904 14.2839 10.802 17.6353 7.59296 22.1506C7.53864 22.2354 7.50198 22.3304 7.48515 22.4297C7.46832 22.529 7.47167 22.6307 7.495 22.7287C7.51834 22.8267 7.56117 22.919 7.62095 23.0001C7.68074 23.0811 7.75624 23.1493 7.84296 23.2006C7.99553 23.2836 8.17283 23.309 8.34259 23.2723C8.51235 23.2356 8.66329 23.1392 8.76796 23.0006Z" fill="#F6E7B1"/>
<path fill-rule="evenodd" clip-rule="evenodd" d="M55.0931 17.3508C53.2681 9.55076 46.5181 4.27576 38.2181 1.90077C34.9613 0.994237 31.5986 0.523469 28.2181 0.500765C24.8413 0.479127 21.4772 0.916461 18.2181 1.80077C10.1931 4.05076 3.3681 9.02576 0.718096 16.6258C0.681982 16.7177 0.664329 16.8158 0.666142 16.9146C0.667956 17.0133 0.689202 17.1107 0.728667 17.2013C0.768132 17.2918 0.825043 17.3737 0.896151 17.4422C0.967259 17.5108 1.05117 17.5647 1.1431 17.6008C1.23502 17.6369 1.33316 17.6545 1.43191 17.6527C1.53066 17.6509 1.62808 17.6297 1.71862 17.5902C1.80915 17.5507 1.89103 17.4938 1.95957 17.4227C2.02812 17.3516 2.08198 17.2677 2.1181 17.1758C4.8681 10.3508 11.3931 6.27576 18.8181 4.47576C21.8812 3.74552 25.0192 3.37634 28.1681 3.37577C31.3199 3.37767 34.4598 3.76385 37.5181 4.52576C45.0181 6.42576 51.4681 10.8008 53.4431 17.7758C53.4995 17.9946 53.6404 18.182 53.835 18.2969C54.0296 18.4118 54.2618 18.4446 54.4806 18.3883C54.6994 18.3319 54.8869 18.1909 55.0017 17.9964C55.1166 17.8018 55.1495 17.5696 55.0931 17.3508Z" fill="#F6E7B1"/>
</svg>
