<svg width="46" height="61" viewBox="0 0 46 61" fill="none" xmlns="http://www.w3.org/2000/svg">
<path fill-rule="evenodd" clip-rule="evenodd" d="M45.1908 16.5627C43.9679 16.1083 42.6781 15.8548 41.3725 15.8121C37.1748 15.5119 30.4485 15.5119 27.4393 15.5119C28.4761 13.2351 30.5243 8.75654 31.5105 6.70492C31.637 6.40468 32.168 5.72915 32.168 5.20373C32.168 4.67832 31.1312 3.6525 30.4232 4.87847C30.4232 5.02859 30.145 5.40389 29.8922 5.9293C28.4761 8.75654 25.0118 16.0873 25.0118 16.0873C24.9363 16.2347 24.8969 16.3975 24.8969 16.5627C24.8969 16.7279 24.9363 16.8908 25.0118 17.0381C25.1007 17.1754 25.2247 17.2871 25.3712 17.3618C25.5177 17.4365 25.6816 17.4715 25.8463 17.4634C31.5381 17.4129 37.2283 17.6802 42.8897 18.2641H43.2437C43.1436 18.4529 43.0339 18.6366 42.915 18.8145C41.3295 20.8248 39.6415 22.7538 37.8576 24.5941C34.6461 27.9717 30.7266 31.8498 27.4393 35.0273C24.6325 37.8546 10.3706 51.04 4.09942 56.0189L3.11323 56.7695C3.70648 54.7769 4.55635 52.8681 5.64193 51.09C8.49936 45.8859 13.0763 39.0555 17.1981 32.3252C17.4585 31.9921 17.5998 31.5829 17.5998 31.1618C17.5998 30.7407 17.4585 30.3314 17.1981 29.9984C16.8569 29.5879 16.3839 29.3053 15.8579 29.1977C14.8918 29.0871 13.916 29.0871 12.9499 29.1977L4.68103 29.3979H3.03737C3.23967 28.9475 3.54311 28.3971 3.74541 27.8466C6.02124 21.5166 12.1154 6.6799 14.0625 2.82685C15.1498 2.55163 17.7291 2.50159 17.9567 2.47657C19.8532 2.32645 21.8003 2.25139 23.7474 2.20135H32.5979C32.7075 2.20186 32.8161 2.17961 32.9165 2.13602C33.0169 2.09244 33.107 2.02849 33.1808 1.94832C33.2547 1.86815 33.3108 1.77354 33.3454 1.67059C33.38 1.56765 33.3924 1.45866 33.3818 1.35068C33.3924 1.2427 33.38 1.13371 33.3454 1.03077C33.3108 0.927826 33.2547 0.833212 33.1808 0.753041C33.107 0.67287 33.0169 0.608926 32.9165 0.565341C32.8161 0.521756 32.7075 0.499499 32.5979 0.500009H22.2302C20.7636 0.500009 19.2716 0.500009 17.7544 0.675147H13.6832C13.2305 0.715328 12.8123 0.93122 12.52 1.27562C10.6993 4.50318 3.89713 20.1906 1.34314 26.7958C0.96813 27.6936 0.647264 28.6126 0.382234 29.548C0.293583 29.81 0.279727 30.0911 0.34219 30.3604C0.404653 30.6297 0.541013 30.8767 0.736252 31.0742C1.15763 31.4215 1.66307 31.6543 2.2029 31.7497C3.04393 31.8283 3.89057 31.8283 4.7316 31.7497L12.8993 31.7748C13.2597 31.8167 13.6153 31.8921 13.9614 31.9999C9.13154 39.681 3.84655 47.3621 1.46958 52.5412C0.703254 54.0179 0.214849 55.6202 0.0282159 57.2699C-0.046734 57.8301 0.0282612 58.3999 0.245703 58.9224C0.463144 59.4449 0.815412 59.9018 1.26728 60.2473C1.54614 60.4127 1.86515 60.5 2.19026 60.5C2.51536 60.5 2.83437 60.4127 3.11323 60.2473C4.13705 59.6639 5.10233 58.9853 5.99595 58.2207C12.2671 53.2167 26.529 39.681 29.3611 36.8538C33.8875 32.3502 39.476 26.4205 42.9656 22.4674C44.3244 21.1279 45.3614 19.5032 46 17.7136C45.9792 17.4684 45.8934 17.2329 45.7514 17.0308C45.6093 16.8288 45.416 16.6673 45.1908 16.5627Z" fill="#F6E7B1"/>
</svg>
