<svg width="61" height="60" viewBox="0 0 61 60" fill="none" xmlns="http://www.w3.org/2000/svg">
<g clip-path="url(#clip0_3761_14351)">
<path fill-rule="evenodd" clip-rule="evenodd" d="M54.2996 47.3488C53.6556 47.8083 52.988 48.2339 52.2996 48.6238C51.6127 48.9937 50.903 49.3193 50.1746 49.5988L46.6496 50.6738L43.9246 50.9738C43.164 51.0077 42.4019 50.9659 41.6496 50.8488C41.0349 50.7717 40.4498 50.5395 39.9496 50.1738C38.7246 49.2238 38.5246 48.0988 37.6246 47.2988C36.7356 46.5681 35.6461 46.1236 34.4996 46.0238C32.7471 45.8054 30.9677 45.9936 29.2996 46.5738C27.5838 47.2287 25.9134 47.9971 24.2996 48.8738C22.922 49.6607 21.4001 50.1623 19.8246 50.3488H18.7496C18.284 50.3578 17.8251 50.2366 17.4246 49.9988C17.14 49.6304 16.9202 49.2161 16.7746 48.7738C16.381 48.0443 15.7924 47.4384 15.0746 47.0238C13.8287 46.4049 12.4091 46.2285 11.0496 46.5238C9.36687 46.8855 7.73117 47.4392 6.17463 48.1738L2.57463 49.9988C2.37904 50.1115 2.23623 50.2973 2.17762 50.5153C2.11902 50.7334 2.14942 50.9657 2.26213 51.1613C2.37485 51.3569 2.56065 51.4997 2.77866 51.5583C2.99667 51.6169 3.22904 51.5865 3.42463 51.4738L6.89963 49.9988C8.33824 49.4222 9.84053 49.0193 11.3746 48.7988C12.1778 48.6558 13.0058 48.7879 13.7246 49.1738C14.1779 49.5067 14.49 49.9972 14.5996 50.5488C14.7653 51.0332 15.0196 51.4825 15.3496 51.8738C16.1185 52.6893 17.1586 53.196 18.2746 53.2988H20.0246C23.9246 53.0738 26.8746 50.7988 30.3246 49.5738C31.5363 49.1187 32.8382 48.956 34.1246 49.0988C34.667 49.1139 35.1947 49.2783 35.6496 49.5738C36.6246 50.3488 36.9246 51.4988 38.1496 52.4238C38.9087 52.9141 39.7591 53.2457 40.6496 53.3988C41.7696 53.549 42.9046 53.549 44.0246 53.3988L47.1746 52.8738C47.8496 52.6988 48.4996 52.4738 49.1496 52.2488C49.7996 52.0238 50.4246 51.7488 51.0246 51.4738C51.8149 51.1021 52.5829 50.6848 53.3246 50.2238C54.054 49.7754 54.7553 49.2828 55.4246 48.7488C55.5281 48.6746 55.6155 48.5804 55.6818 48.4717C55.7481 48.363 55.7919 48.2421 55.8105 48.1162C55.8292 47.9902 55.8224 47.8618 55.7904 47.7386C55.7585 47.6154 55.7021 47.4998 55.6246 47.3988C55.4508 47.2249 55.2176 47.1232 54.9719 47.1139C54.7262 47.1046 54.4861 47.1885 54.2996 47.3488Z" fill="#F6E7B1"/>
<path fill-rule="evenodd" clip-rule="evenodd" d="M24.4021 32.9242C23.6771 33.3242 22.9521 33.7992 22.2521 34.2742C21.5521 34.7492 20.7521 35.4242 20.0521 36.0492C18.4111 37.52 16.9051 39.1348 15.5521 40.8742C15.4412 40.9605 15.3503 41.0697 15.2855 41.1944C15.2208 41.3191 15.1837 41.4563 15.1769 41.5966C15.1701 41.7369 15.1937 41.8771 15.2462 42.0074C15.2986 42.1378 15.3785 42.2553 15.4806 42.3519C15.5826 42.4484 15.7043 42.5218 15.8374 42.567C15.9704 42.6121 16.1117 42.628 16.2514 42.6135C16.3911 42.599 16.5261 42.5545 16.6471 42.483C16.768 42.4115 16.872 42.3147 16.9521 42.1992C17.8271 41.4242 18.7521 40.6992 19.7271 39.9742C20.7021 39.2492 21.6771 38.6242 22.6771 37.9492L25.6021 35.8992L28.4771 33.7242C29.8271 32.1242 26.9521 31.1742 24.4021 32.9242Z" fill="#F6E7B1"/>
<path fill-rule="evenodd" clip-rule="evenodd" d="M59.1264 18.5748C58.4066 18.3756 57.6462 18.3756 56.9264 18.5748C55.0514 18.9998 52.2764 20.2998 51.3764 20.5498C46.7514 21.9748 41.2514 25.1498 35.9264 26.6748C33.8804 27.3422 31.7187 27.5805 29.5764 27.3748C26.7808 26.9474 24.0225 26.3039 21.3264 25.4498C20.2264 25.1248 19.1514 24.7498 18.0764 24.3998C18.0764 24.3998 18.3014 24.3998 18.3514 24.1498C18.991 22.9799 19.7181 21.8601 20.5264 20.7998C21.3054 19.7397 22.1399 18.7216 23.0264 17.7498C24.4764 16.1248 26.0514 13.4998 27.7514 11.3748C27.9014 11.1498 28.1014 11.0248 28.2514 10.8248C28.2233 12.3685 28.2817 13.9126 28.4264 15.4498C28.4264 16.7248 28.8014 17.9498 29.0264 19.2748C29.4538 21.1599 29.7462 23.0731 29.9014 24.9998C29.8876 25.1253 29.8997 25.2523 29.9368 25.3729C29.9739 25.4936 30.0354 25.6054 30.1174 25.7014C30.1993 25.7974 30.3001 25.8757 30.4134 25.9313C30.5268 25.9869 30.6503 26.0187 30.7764 26.0248C30.9032 26.0385 31.0315 26.0266 31.1536 25.9898C31.2757 25.9529 31.3892 25.8918 31.4871 25.8101C31.5851 25.7285 31.6657 25.6279 31.724 25.5145C31.7823 25.401 31.8171 25.277 31.8264 25.1498C32.2231 22.8893 32.3323 20.5877 32.1514 18.2998C32.0306 16.9625 31.8218 15.6346 31.5264 14.3248C31.2264 13.0998 30.8764 11.8248 30.5514 10.7248L31.3014 11.6498C32.3178 12.7153 33.2774 13.8335 34.1764 14.9998C36.3764 17.8748 38.3514 20.9498 40.5764 23.7498C40.6506 23.8532 40.7449 23.9407 40.8536 24.007C40.9622 24.0733 41.0831 24.117 41.2091 24.1357C41.335 24.1544 41.4634 24.1475 41.5866 24.1156C41.7099 24.0836 41.8254 24.0273 41.9264 23.9498C42.0291 23.8779 42.116 23.7859 42.1821 23.6794C42.2481 23.5729 42.2918 23.4541 42.3105 23.3302C42.3292 23.2062 42.3225 23.0798 42.2909 22.9586C42.2592 22.8373 42.2033 22.7238 42.1264 22.6248C40.2514 19.7498 38.4264 16.5248 36.4764 13.4998C35.6316 12.1446 34.7049 10.8422 33.7014 9.59978C32.7736 8.54667 31.7247 7.60683 30.5764 6.79978C30.1964 6.58036 29.7653 6.46484 29.3264 6.46484C28.8876 6.46484 28.4565 6.58036 28.0764 6.79978C26.9993 7.53659 26.0458 8.43946 25.2514 9.47478C23.6514 11.6748 22.4014 14.4748 21.1014 16.1998C20.2764 17.3248 19.4764 18.4748 18.7514 19.6748C17.9953 20.8882 17.335 22.1587 16.7764 23.4748C16.7135 23.6527 16.7135 23.8468 16.7764 24.0248C14.1014 23.1248 11.4514 22.2248 8.87643 21.5248C6.73329 20.8262 4.53328 20.3159 2.30143 19.9998C1.05143 19.9998 0.501426 20.6998 0.426426 21.2248C0.0729168 24.1897 0.424101 27.1962 1.45143 29.9998C2.88719 33.9641 4.74804 37.7612 7.00143 41.3248C7.11746 41.5204 7.30644 41.6619 7.52679 41.7181C7.74715 41.7744 7.98083 41.7408 8.17643 41.6248C8.37202 41.5087 8.51352 41.3198 8.56978 41.0994C8.62604 40.8791 8.59246 40.6454 8.47643 40.4498C6.39401 36.9339 4.71665 33.1934 3.47643 29.2998C2.78992 27.1028 2.54355 24.7921 2.75143 22.4998C4.55964 22.8733 6.3391 23.3746 8.07643 23.9998C12.0514 25.3998 16.2014 27.1498 20.4264 28.4998C23.4829 29.5286 26.6184 30.3062 29.8014 30.8248C32.1971 30.729 34.5765 30.3855 36.9014 29.7998C42.2264 28.1998 47.6764 24.7998 52.3014 23.3748C52.9764 23.1498 54.8014 22.2998 56.4014 21.6748L57.3514 21.2998C57.3656 21.4661 57.3656 21.6334 57.3514 21.7998C54.5052 28.8292 51.0504 35.5966 47.0264 42.0248C46.9443 42.12 46.8818 42.2304 46.8424 42.3498C46.803 42.4692 46.7875 42.5951 46.7968 42.7205C46.8061 42.8458 46.84 42.9682 46.8966 43.0804C46.9531 43.1927 47.0312 43.2927 47.1264 43.3748C47.3187 43.5405 47.569 43.6231 47.8221 43.6044C48.0753 43.5856 48.3107 43.4671 48.4764 43.2748C52.3533 37.4962 55.7961 31.4379 58.7764 25.1498C59.5966 23.5869 60.1461 21.8963 60.4014 20.1498C60.4034 19.7804 60.2774 19.4218 60.045 19.1347C59.8126 18.8476 59.4881 18.6498 59.1264 18.5748Z" fill="#F6E7B1"/>
<path fill-rule="evenodd" clip-rule="evenodd" d="M39.1028 36.3991C38.4057 35.512 37.6454 34.6764 36.8278 33.8991L36.6778 33.7741C33.2778 31.8741 32.1778 32.1741 33.1028 34.3241L34.1028 35.5991C34.5278 36.1241 35.0028 36.6241 35.4778 37.1241L37.0028 38.5741C38.2278 39.6741 39.5028 40.6741 40.8778 41.6741C40.9643 41.7664 41.0688 41.84 41.1849 41.8904C41.301 41.9407 41.4262 41.9666 41.5528 41.9666C41.6793 41.9666 41.8045 41.9407 41.9206 41.8904C42.0367 41.84 42.1412 41.7664 42.2278 41.6741C42.317 41.5858 42.3878 41.4806 42.4361 41.3648C42.4844 41.2489 42.5093 41.1246 42.5093 40.9991C42.5093 40.8736 42.4844 40.7493 42.4361 40.6334C42.3878 40.5176 42.317 40.4124 42.2278 40.3241C41.1028 39.0491 40.2528 37.6991 39.1028 36.3991Z" fill="#F6E7B1"/>
</g>
<defs>
<clipPath id="clip0_3761_14351">
<rect width="60" height="60" fill="white" transform="translate(0.25)"/>
</clipPath>
</defs>
</svg>
