<svg width="61" height="59" viewBox="0 0 61 59" fill="none" xmlns="http://www.w3.org/2000/svg">
<path fill-rule="evenodd" clip-rule="evenodd" d="M34.5116 31.8263C34.8866 29.5513 35.2866 27.2513 35.5366 24.9513H36.0616C36.2616 24.9513 37.0366 25.2513 37.8866 25.4263C39.5366 24.9263 39.4616 24.1763 38.2616 23.2763C37.4358 23.0932 36.6015 22.9513 35.7616 22.8513C35.8967 20.9074 36.1304 18.9716 36.4616 17.0513C36.3116 14.5513 34.4866 14.9763 33.7866 17.0513C33.8008 17.2094 33.8008 17.3683 33.7866 17.5263C33.4866 19.2013 33.1866 20.9013 32.9366 22.5263C30.1116 22.3763 30.6366 22.5263 24.4866 22.5263C24.4866 22.0263 23.8866 19.2263 23.5366 17.2263C23.1866 15.2263 21.5616 15.1513 21.4116 17.2263C21.4116 18.4763 21.4116 20.0263 21.6116 22.5263C19.9366 22.5263 19.4116 22.5263 14.3616 22.9263C14.0944 21.0706 13.7103 19.2336 13.2116 17.4263C12.2116 15.6013 10.3366 16.2263 10.3366 17.6763C10.7616 19.9263 10.5366 19.1013 11.2116 23.3513C9.8937 23.5457 8.55445 23.5457 7.23658 23.3513C4.73658 23.5763 4.41158 25.4013 7.76158 25.7013H11.5866C12.2116 29.6763 12.2866 30.3013 12.7616 32.6263C11.4057 32.9503 9.9925 32.9503 8.63658 32.6263C7.53658 32.1513 5.38658 35.1263 13.2616 34.6013C13.5555 35.728 13.9747 36.8181 14.5116 37.8513C14.632 38.0371 14.8166 38.172 15.0302 38.2302C15.2438 38.2884 15.4713 38.2659 15.6693 38.1669C15.8674 38.0679 16.0219 37.8994 16.1035 37.6936C16.1851 37.4878 16.188 37.2591 16.1116 37.0513C15.7593 36.2542 15.5154 35.4133 15.3866 34.5513C17.5116 34.4013 18.5616 34.5513 23.6866 34.3763C24.1055 35.4662 24.4072 36.5976 24.5866 37.7513C24.5866 37.99 24.6814 38.219 24.8502 38.3877C25.019 38.5565 25.2479 38.6513 25.4866 38.6513C25.7253 38.6513 25.9542 38.5565 26.123 38.3877C26.2918 38.219 26.3866 37.99 26.3866 37.7513C26.3772 36.5971 26.2346 35.4479 25.9616 34.3263H31.7616C31.3116 39.9513 35.1116 37.8263 33.7616 36.5013C33.4866 36.1763 33.7616 34.5763 33.9366 34.1513C35.5116 33.9263 36.1116 33.9513 36.8866 33.8013C37.6616 33.6513 38.1866 31.8763 37.2366 31.8013C36.2866 31.7263 36.0116 31.8263 34.5116 31.8263ZM15.0866 32.2013C15.0866 31.4263 14.6866 27.2013 14.5366 25.7763H21.7866C21.9879 27.7007 22.339 29.6065 22.8366 31.4763C20.2421 31.5934 17.6554 31.8437 15.0866 32.2263V32.2013ZM32.0366 31.8263C29.9116 31.8263 27.6616 31.5513 25.5116 31.4513C25.3866 30.4013 24.9116 26.4513 24.7866 25.5013C28.3866 25.2763 30.3866 25.0263 32.5116 24.9513C32.2116 28.3763 32.0616 31.8263 32.0366 31.8263Z" fill="#F6E7B1"/>
<path fill-rule="evenodd" clip-rule="evenodd" d="M57.3121 0.95113C54.5771 0.395052 51.7625 0.352665 49.0121 0.82613C45.0621 2.05113 46.5121 -0.54887 42.6121 11.7761C40.9621 18.0261 37.0871 38.1261 37.6121 38.9261C14.1121 39.3011 13.7621 39.7761 7.43707 37.9511C7.61207 37.4511 7.01207 36.1011 6.96207 35.8761C3.61207 20.5011 2.66207 19.1511 3.58707 16.4261C15.3922 14.4631 27.3452 13.5263 39.3121 13.6261C39.3958 13.6934 39.4919 13.7436 39.595 13.7737C39.6981 13.8039 39.8062 13.8134 39.913 13.8018C40.0197 13.7902 40.1232 13.7577 40.2174 13.7061C40.3116 13.6545 40.3948 13.5848 40.4621 13.5011C40.5294 13.4174 40.5795 13.3213 40.6097 13.2182C40.6398 13.1151 40.6493 13.007 40.6377 12.9002C40.6261 12.7935 40.5936 12.69 40.542 12.5958C40.4904 12.5016 40.4208 12.4184 40.3371 12.3511C38.8871 11.2761 11.6871 12.5511 11.9121 12.5511C8.61736 12.2105 5.28853 12.6383 2.18707 13.8011C-0.437933 15.0011 0.337067 20.7761 0.862067 23.5011C2.83707 30.8761 2.11207 27.9511 4.06207 36.3761C4.21207 37.1511 4.23707 39.1011 4.98707 39.8261C8.71207 43.4011 27.4871 40.8011 37.1371 40.7511C36.6121 42.5261 36.4121 43.6011 34.8871 44.0261C33.2248 44.1965 31.5494 44.1965 29.8871 44.0261C22.6621 44.3761 15.7121 42.8761 4.88707 44.0261C4.67489 44.0096 4.46483 44.0779 4.30308 44.2163C4.14133 44.3546 4.04114 44.5515 4.02457 44.7636C4.00799 44.9758 4.07638 45.1859 4.21469 45.3476C4.35299 45.5094 4.54989 45.6096 4.76207 45.6261C3.93255 45.9548 3.18128 46.454 2.55684 47.0914C1.9324 47.7287 1.44872 48.4901 1.13707 49.3261C-0.112933 52.7761 3.33707 57.0511 6.81207 57.9511C13.7371 59.7261 18.9871 50.1011 13.7121 46.0261C14.4814 46.0414 15.2493 46.0998 16.0121 46.2011C20.9619 47.0786 26.0079 47.2805 31.0121 46.8011C26.3371 51.2761 31.1621 57.9011 37.1871 57.2261C43.8121 56.4511 43.3871 45.8511 37.7121 44.9011C39.3871 42.9011 38.6621 41.0011 41.3121 31.0761C43.215 23.7284 44.7255 16.2845 45.8371 8.77613C47.0371 8.47613 55.1121 9.22613 56.8121 9.12613C57.7513 8.97182 58.6102 8.50306 59.2482 7.79666C59.8861 7.09027 60.2652 6.18814 60.3233 5.23809C60.3814 4.28805 60.1151 3.34644 59.568 2.56757C59.0209 1.7887 58.2255 1.21875 57.3121 0.95113ZM12.6871 52.3761C12.3412 53.1434 11.7967 53.8043 11.1099 54.2906C10.423 54.7769 9.61874 55.0709 8.7802 55.1423C7.94165 55.2137 7.09926 55.0598 6.34011 54.6965C5.58096 54.3333 4.9326 53.7739 4.46207 53.0761C4.03379 52.6901 3.70378 52.2075 3.49942 51.6683C3.29507 51.1292 3.22227 50.5491 3.28707 49.9761C3.47311 49.1494 3.92012 48.4044 4.56207 47.8511C8.88707 44.0261 15.3371 47.4261 12.6871 52.3761ZM39.6121 50.0261C40.3621 57.0261 31.1121 54.2011 31.9121 50.0261C32.5621 46.6761 39.0121 44.5011 39.6121 50.0261ZM56.5371 6.17613C54.8371 6.40113 48.9121 6.45113 46.2121 6.80113C46.3712 5.49704 46.673 4.21435 47.1121 2.97613C47.3621 3.35113 48.8371 2.80113 49.4621 2.67613C51.8959 2.64791 54.3184 3.01087 56.6371 3.75113C57.6371 4.05113 57.5121 6.07613 56.5371 6.17613Z" fill="#F6E7B1"/>
</svg>
