<svg width="67" height="59" viewBox="0 0 67 59" fill="none" xmlns="http://www.w3.org/2000/svg">
<path fill-rule="evenodd" clip-rule="evenodd" d="M65.689 37.133C66.0354 35.5535 66.1281 33.9367 65.9642 32.333C65.7601 29.7039 64.934 27.1457 63.5424 24.833C63.134 24.2001 62.5625 23.6669 61.8769 23.2793C61.1913 22.8917 60.4123 22.6613 59.6069 22.608C58.8992 22.6665 58.2181 22.8817 57.6232 23.2348C57.0283 23.5878 56.5376 24.0679 56.1943 24.633C55.5998 21.9332 54.5213 19.3404 53.0018 16.958C52.5363 16.0577 51.8419 15.2709 50.9758 14.6624C50.1097 14.0538 49.0968 13.641 48.0205 13.458C47.5088 13.4867 47.0161 13.6447 46.5979 13.9141C46.1797 14.1836 45.8527 14.5538 45.6537 14.983C45.5369 14.7952 45.3985 14.6193 45.2409 14.458C43.8098 13.508 42.2411 13.158 40.9751 14.458C40.7783 14.6004 40.6485 14.8054 40.612 15.0316C40.5756 15.2577 40.6352 15.488 40.7787 15.6756C40.9223 15.8633 41.1391 15.9944 41.3851 16.0421C41.6312 16.0899 41.888 16.0509 42.1035 15.933C42.4613 15.783 42.6539 16.083 42.8741 16.283C43.0826 16.4844 43.2587 16.7117 43.397 16.958C43.6229 17.1973 43.8342 17.4477 44.03 17.708L44.5804 18.383C44.9382 18.783 45.2959 19.083 45.5436 19.358L45.9289 19.883C46.6754 22.1402 47.6425 24.3322 48.8186 26.433C48.9208 26.6551 49.116 26.8313 49.3611 26.9227C49.6063 27.0141 49.8814 27.0133 50.1259 26.9205C50.3704 26.8277 50.5643 26.6504 50.6649 26.4277C50.7656 26.205 50.7647 25.9551 50.6625 25.733C49.211 22.8225 48.3531 19.6969 48.1306 16.508C48.5709 16.508 48.9562 17.008 49.4516 17.483C50.4278 18.4887 51.2685 19.5965 51.956 20.783C53.231 22.7977 54.2029 24.9587 54.8457 27.208C53.9475 29.62 53.5645 32.1656 53.7174 34.708C52.5776 34.8098 51.482 35.1616 50.5249 35.733C49.6433 36.2917 48.8946 37.0059 48.3232 37.833C47.516 39.0327 46.9216 40.3404 46.5619 41.708C46.4634 41.9301 46.466 42.1787 46.5692 42.3991C46.6724 42.6194 46.8678 42.7935 47.1123 42.883C47.3568 42.9725 47.6305 42.9701 47.8731 42.8764C48.1156 42.7826 48.3073 42.6051 48.4058 42.383C49.1695 41.2219 50.0945 40.1548 51.1579 39.208C51.5432 38.833 51.956 38.483 52.3688 38.133L53.1394 37.458C53.857 36.8595 54.7428 36.4529 55.6989 36.283C55.8146 36.2898 55.9306 36.2757 56.0403 36.2417C56.15 36.2076 56.2513 36.1542 56.3382 36.0845C56.4251 36.0149 56.4961 35.9303 56.5469 35.8356C56.5978 35.741 56.6276 35.6381 56.6346 35.533C56.635 35.3226 56.5469 35.12 56.3883 34.9666C56.2297 34.8133 56.0126 34.7208 55.7814 34.708H55.6163C55.6008 32.7695 55.945 30.8425 56.6346 29.008C56.9978 27.9115 57.5657 26.8799 58.3134 25.958C58.6436 25.533 58.9464 25.158 59.3041 25.183C60.2674 25.183 60.7903 26.083 61.2306 27.058C61.9685 28.8477 62.4136 30.726 62.5516 32.633C62.6935 33.9421 62.6379 35.2626 62.3865 36.558C61.781 39.933 60.2674 42.858 59.6344 46.558C59.4476 47.6598 59.4476 48.7812 59.6344 49.883C59.9096 51.258 60.5426 52.383 61.1756 54.308C61.1945 54.4172 61.2381 54.5216 61.3037 54.6147C61.3692 54.7079 61.4553 54.7876 61.5565 54.849C61.6577 54.9104 61.7718 54.952 61.8916 54.9713C62.0114 54.9906 62.1343 54.9872 62.2526 54.9612C62.3709 54.9352 62.4819 54.8872 62.5788 54.8203C62.6756 54.7534 62.7561 54.669 62.8153 54.5724C62.8744 54.4757 62.9108 54.3691 62.9223 54.259C62.9337 54.149 62.92 54.038 62.8819 53.933C62.4415 51.958 61.8911 50.933 61.726 49.608C61.66 48.7004 61.7529 47.7891 62.0012 46.908C63.047 43.258 64.9184 40.483 65.689 37.133Z" fill="#F6E7B1"/>
<path fill-rule="evenodd" clip-rule="evenodd" d="M19.5085 41.7334C19.1488 40.3658 18.5544 39.0581 17.7471 37.8584C17.1758 37.0313 16.427 36.3171 15.5454 35.7584C14.5883 35.187 13.4928 34.8352 12.353 34.7334C12.5059 32.1909 12.1229 29.6454 11.2246 27.2334C11.824 24.9903 12.7495 22.8296 13.9767 20.8084C14.671 19.6119 15.5211 18.4956 16.5087 17.4834C17.004 17.0084 17.3893 16.5834 17.8297 16.5084C17.6072 19.6972 16.7493 22.8229 15.2977 25.7334C15.1956 25.9555 15.1947 26.2054 15.2953 26.4281C15.396 26.6508 15.5899 26.8281 15.8344 26.9209C16.0789 27.0137 16.354 27.0145 16.5992 26.9231C16.8443 26.8317 17.0395 26.6555 17.1417 26.4334C18.3556 24.3361 19.3595 22.144 20.1414 19.8834L20.5267 19.4584C20.7744 19.1834 21.1322 18.8834 21.49 18.4834L22.0129 17.7084C22.2087 17.4481 22.42 17.1977 22.6459 16.9584C22.7842 16.7121 22.9602 16.4848 23.1688 16.2834C23.3889 16.0834 23.5816 15.7834 23.9393 15.9334C24.1549 16.0513 24.4117 16.0903 24.6577 16.0425C24.9038 15.9947 25.1206 15.8637 25.2641 15.676C25.4077 15.4884 25.4673 15.2581 25.4308 15.032C25.3943 14.8058 25.2645 14.6008 25.0677 14.4584C23.8017 13.2834 22.3156 13.6334 20.8019 14.4584C20.6501 14.5881 20.5119 14.7304 20.3891 14.8834C20.1902 14.4542 19.8631 14.084 19.445 13.8145C19.0268 13.5451 18.5341 13.3871 18.0223 13.3584C16.9351 13.5516 15.9149 13.9796 15.048 14.6061C14.181 15.2327 13.4927 16.0395 13.041 16.9584C11.5131 19.3639 10.4344 21.9827 9.84859 24.7084C9.50521 24.1433 9.0146 23.6632 8.41967 23.3102C7.82475 22.9571 7.14366 22.7419 6.43598 22.6834C5.63059 22.7367 4.85155 22.9671 4.16596 23.3547C3.48037 23.7423 2.9088 24.2755 2.50048 24.9084C1.10884 27.2211 0.282774 29.7793 0.0786291 32.4084C-0.0852982 34.0121 0.00740127 35.6289 0.353839 37.2084C1.12443 40.5584 3.10594 43.3334 3.79397 46.9334C4.02263 47.7581 4.11538 48.609 4.06918 49.4584C3.90405 50.7834 3.35363 51.8084 2.91329 53.7834C2.86203 53.9886 2.89902 54.2038 3.01668 54.3851C3.13434 54.5663 3.32379 54.6999 3.54628 54.7584C3.77588 54.804 4.01599 54.7669 4.21615 54.655C4.4163 54.5431 4.56092 54.3651 4.6196 54.1584C5.25258 52.1334 5.88556 51.1084 6.16077 49.7334C6.34753 48.6316 6.34753 47.5102 6.16077 46.4084C5.63787 42.7834 4.12422 39.8584 3.40867 36.4084C3.15722 35.113 3.10167 33.7925 3.24355 32.4834C3.38154 30.5764 3.82661 28.6981 4.56455 26.9084C5.00489 25.9334 5.52779 25.1334 6.49102 25.0334C6.8488 25.0334 7.15153 25.3834 7.48178 25.8084C8.22948 26.7303 8.79732 27.7619 9.16056 28.8584C9.85015 30.6929 10.1944 32.6199 10.1788 34.5584C9.94764 34.5711 9.73054 34.6637 9.57195 34.817C9.41335 34.9704 9.32526 35.173 9.32569 35.3834C9.3327 35.4885 9.36248 35.5914 9.41335 35.686C9.46421 35.7807 9.53514 35.8652 9.62208 35.9349C9.70902 36.0046 9.81024 36.058 9.91996 36.0921C10.0297 36.1261 10.1457 36.1402 10.2614 36.1334C11.2139 36.3127 12.097 36.7182 12.8209 37.3084L13.5914 37.9834C14.0043 38.3334 14.4171 38.6834 14.8024 39.0584C15.8658 40.0052 16.7907 41.0723 17.5545 42.2334C17.653 42.4555 17.8446 42.633 18.0872 42.7268C18.2073 42.7732 18.3363 42.7977 18.4669 42.7988C18.5974 42.7999 18.7269 42.7777 18.848 42.7334C18.969 42.6891 19.0793 42.6235 19.1725 42.5405C19.2657 42.4575 19.3399 42.3586 19.3911 42.2495C19.4422 42.1403 19.4691 42.0232 19.4704 41.9046C19.4716 41.786 19.4472 41.6684 19.3984 41.5584L19.5085 41.7334Z" fill="#F6E7B1"/>
<path fill-rule="evenodd" clip-rule="evenodd" d="M45.2678 49.8079C44.8083 49.0818 44.2639 48.4029 43.6441 47.7829C42.3506 46.5079 40.892 45.4579 39.5159 44.2079C38.2552 43.1099 37.1712 41.8559 36.2959 40.4829C35.3962 39.0819 34.6847 37.5879 34.1768 36.0329C34.1123 35.8212 33.9647 35.6382 33.762 35.5185C33.5592 35.3987 33.3152 35.3505 33.076 35.3829C32.8368 35.3505 32.5928 35.3987 32.39 35.5185C32.1873 35.6382 32.0397 35.8212 31.9752 36.0329C31.4673 37.5879 30.7558 39.0819 29.856 40.4829C28.947 41.8623 27.8257 43.1166 26.526 44.2079C25.26 45.4579 23.7739 46.5079 22.3978 47.7829C21.778 48.4029 21.2336 49.0818 20.7741 49.8079C20.1725 50.7477 19.6659 51.735 19.2604 52.7579C18.7859 54.2784 18.4635 55.8347 18.2972 57.4079C18.269 57.5082 18.2639 57.6128 18.2824 57.715C18.3008 57.8172 18.3424 57.9149 18.4044 58.0018C18.4665 58.0887 18.5477 58.163 18.6429 58.22C18.7381 58.2769 18.8453 58.3154 18.9577 58.3329C19.1839 58.3778 19.4204 58.34 19.6161 58.2277C19.8118 58.1154 19.951 57.9377 20.0035 57.7329C20.3433 56.5459 20.7568 55.3774 21.242 54.2329C21.7552 53.1684 22.4316 52.1753 23.251 51.2829C23.726 50.7748 24.2313 50.2907 24.7646 49.8329C26.1407 48.6079 27.6819 47.4829 28.9478 46.2329C30.2374 44.8204 31.3112 43.2563 32.1403 41.5829C32.4915 40.6738 32.7856 39.7473 33.021 38.8079C33.2654 39.7478 33.5686 40.6743 33.9291 41.5829C34.7582 43.2563 35.832 44.8204 37.1216 46.2329C38.3875 47.4829 39.8737 48.6079 41.3048 49.8329C41.8193 50.292 42.3062 50.7761 42.7634 51.2829C43.5828 52.1753 44.2592 53.1684 44.7724 54.2329C45.2576 55.3774 45.6711 56.5459 46.0109 57.7329C46.0634 57.9377 46.2026 58.1154 46.3983 58.2277C46.594 58.34 46.8305 58.3778 47.0567 58.3329C47.1691 58.3154 47.2762 58.2769 47.3715 58.22C47.4667 58.163 47.5479 58.0887 47.6099 58.0018C47.672 57.9149 47.7136 57.8172 47.732 57.715C47.7505 57.6128 47.7454 57.5082 47.7172 57.4079C47.5598 55.8355 47.2467 54.2792 46.7815 52.7579C46.376 51.735 45.8694 50.7477 45.2678 49.8079Z" fill="#F6E7B1"/>
<path fill-rule="evenodd" clip-rule="evenodd" d="M25.5088 17.2831C24.764 18.3135 24.1018 19.3913 23.5273 20.5081C22.8231 21.9946 22.44 23.5902 22.399 25.2081C22.3306 25.9484 22.3306 26.6927 22.399 27.4331C22.6071 28.8647 23.2658 30.2112 24.2959 31.311C25.326 32.4108 26.6837 33.2171 28.2059 33.6331C31.1218 34.3885 34.2484 34.0649 36.9025 32.7331C39.3708 31.4799 41.2136 29.4121 42.049 26.9581C42.9628 24.5793 42.8247 21.9712 41.6637 19.6831C41.1156 18.6553 40.4217 17.6971 39.5996 16.8331C37.8933 14.9331 35.8017 13.3581 34.0954 11.4331C34.0954 11.4331 32.5542 10.4581 31.9763 10.9581C30.7724 11.8761 29.6327 12.8614 28.5637 13.9081C27.4453 14.9552 26.4236 16.084 25.5088 17.2831ZM32.4992 12.5331C34.178 14.5081 36.1319 16.1331 37.7282 18.0831C38.3549 18.8635 38.8899 19.7014 39.3244 20.5831C40.0625 22.3206 40.0625 24.2455 39.3244 25.9831C38.6778 27.7156 37.3565 29.1738 35.609 30.0831C33.7099 31.0039 31.4971 31.2362 29.4168 30.7331C28.4451 30.5083 27.5662 30.0318 26.887 29.3616C26.2079 28.6914 25.7577 27.8564 25.5914 26.9581C25.4638 26.3814 25.3901 25.796 25.3712 25.2081C25.2904 23.7287 25.5724 22.2514 26.1969 20.8831C26.5822 20.0331 27.05 19.2081 27.5179 18.3831C28.2414 17.2226 29.0698 16.1188 29.9948 15.0831C30.7709 14.187 31.6073 13.3354 32.4992 12.5331Z" fill="#F6E7B1"/>
<path fill-rule="evenodd" clip-rule="evenodd" d="M25.4521 10.1334C26.4363 10.3856 27.4859 10.3249 28.4269 9.96113C29.3678 9.59739 30.1438 8.95251 30.6261 8.13335C30.9482 7.22296 30.9482 6.24375 30.6261 5.33335C30.0812 3.78174 29.3131 2.30229 28.3418 0.933353C28.2636 0.819631 28.1591 0.722719 28.0355 0.649334C27.912 0.575948 27.7723 0.527843 27.6263 0.508353C27.3329 0.474122 27.0364 0.545944 26.8007 0.708353C25.5366 1.66302 24.3586 2.70802 23.278 3.83335C22.6671 4.44414 22.2322 5.18277 22.012 5.98335C21.8628 6.94801 22.1414 7.927 22.7865 8.70517C23.4315 9.48334 24.3903 9.99703 25.4521 10.1334ZM25.7549 4.68335C26.1831 4.06665 26.6518 3.47391 27.1584 2.90835C27.4984 3.66937 27.7654 4.45562 27.9565 5.25835C28.1673 5.7745 28.1673 6.34221 27.9565 6.85835C27.6538 7.35835 26.8832 7.30835 26.3053 7.18335C25.7273 7.05835 25.0393 6.95835 25.0668 6.30835C25.1496 5.72444 25.3855 5.16714 25.7549 4.68335Z" fill="#F6E7B1"/>
<path fill-rule="evenodd" clip-rule="evenodd" d="M41.2783 11.6084C42.3357 11.5201 43.3262 11.0999 44.0796 10.4201C44.833 9.74029 45.3021 8.84332 45.4064 7.88337C45.3829 6.89758 45.0169 5.94379 44.3606 5.15837C43.1312 3.86065 41.7256 2.7098 40.1774 1.73337C39.9293 1.57578 39.6229 1.51294 39.3243 1.55837C39.1662 1.56413 39.0118 1.60328 38.8732 1.67272C38.7347 1.74215 38.6159 1.83995 38.5262 1.95837C37.6306 3.30992 36.8927 4.74268 36.3245 6.23337C36.0504 7.04199 35.9752 7.89545 36.1043 8.73337C36.2231 9.23733 36.4534 9.71408 36.7814 10.1346C37.1093 10.5552 37.528 10.9107 38.012 11.1796C38.496 11.4486 39.0351 11.6253 39.5966 11.699C40.1582 11.7727 40.7303 11.7418 41.2783 11.6084ZM39.8472 3.95837C40.5283 4.59681 41.154 5.28219 41.7186 6.00837C42.1411 6.46012 42.3577 7.0414 42.3241 7.63337C42.3241 8.28337 41.4709 8.50837 40.8104 8.60837C40.1499 8.70837 39.4619 8.60837 39.2417 8.10837C39.074 7.50112 39.074 6.86562 39.2417 6.25837C39.3948 5.48179 39.597 4.71386 39.8472 3.95837Z" fill="#F6E7B1"/>
<path fill-rule="evenodd" clip-rule="evenodd" d="M26.9111 24.4586C26.5297 25.1275 26.3855 25.8872 26.4983 26.6336C26.5447 27.0042 26.6964 27.3574 26.9386 27.6586C27.0748 27.8837 27.2625 28.0798 27.489 28.2336C28.2753 28.7818 29.2514 29.0566 30.2411 29.0086C30.3658 29.0433 30.4968 29.0552 30.6266 29.0438C30.7564 29.0324 30.8824 28.9979 30.9975 28.9421C31.1125 28.8864 31.2143 28.8106 31.2971 28.719C31.3798 28.6275 31.4418 28.522 31.4796 28.4086C31.5215 28.2971 31.5375 28.1789 31.5265 28.0615C31.5155 27.9441 31.4777 27.8301 31.4156 27.7266C31.3535 27.6232 31.2684 27.5326 31.1657 27.4607C31.063 27.3887 30.945 27.3369 30.8191 27.3086C27.7918 25.3586 28.6724 24.5836 28.7275 24.5586C28.7354 24.3479 28.6543 24.1424 28.5008 23.9844C28.3473 23.8263 28.133 23.7276 27.9018 23.7086C27.7818 23.6947 27.6599 23.7034 27.5437 23.7342C27.4276 23.765 27.3196 23.8172 27.2267 23.8876C27.1337 23.9579 27.0577 24.045 27.0034 24.1432C26.9491 24.2415 26.9177 24.3488 26.9111 24.4586Z" fill="#F6E7B1"/>
</svg>
