<svg width="49" height="38" viewBox="0 0 49 38" fill="none" xmlns="http://www.w3.org/2000/svg">
<path fill-rule="evenodd" clip-rule="evenodd" d="M21.7879 17.6221C21.7415 16.86 21.5162 16.1198 21.1305 15.4619C20.8515 14.997 20.502 14.5786 20.0946 14.2218C19.9435 14.0975 19.767 14.008 19.5777 13.9596C19.3884 13.9112 19.1908 13.9051 18.9989 13.9418C18.7449 14.0241 18.51 14.1568 18.308 14.332C18.1061 14.5073 17.9413 14.7215 17.8235 14.9619C17.3055 15.8619 16.7875 17.5021 16.5485 17.8621C15.9415 18.8452 15.1579 19.7065 14.2375 20.4023L14.0582 20.5223C14.2176 20.2623 14.377 20.0423 14.5165 19.7822C14.8843 19.0731 15.1073 18.2973 15.1723 17.5004C15.2373 16.7035 15.143 15.9017 14.895 15.1419C14.3462 13.7284 13.3438 12.5389 12.0461 11.7616C10.7728 10.957 9.28616 10.5595 7.78288 10.6215C6.51956 10.6632 5.2911 11.0479 4.22819 11.7347C3.16528 12.4215 2.30767 13.3847 1.74657 14.5218C1.2276 15.6813 1.0888 16.9763 1.35017 18.2201C1.61154 19.4639 2.25959 20.5922 3.20086 21.4424C3.44338 21.6832 3.71048 21.8977 3.99773 22.0824C3.78407 22.1732 3.57761 22.2802 3.38016 22.4024C2.99585 22.6847 2.64198 23.0064 2.3243 23.3625C1.70269 24.12 1.25998 25.009 1.02938 25.9627C0.800101 26.9225 0.800101 27.9231 1.02938 28.8829C1.20403 29.7304 1.61222 30.5116 2.20746 31.1375C2.8027 31.7634 3.56107 32.2089 4.39617 32.4232V32.6832C4.53562 33.9833 4.79461 35.2434 4.95398 36.4835C4.95398 36.6586 5.02324 36.8265 5.14653 36.9503C5.26982 37.074 5.43704 37.1436 5.6114 37.1436C5.76855 37.1294 5.91539 37.059 6.02511 36.9452C6.13484 36.8313 6.20012 36.6817 6.20905 36.5235C6.32859 35.1234 6.44812 33.6833 6.46804 32.2232V29.723C6.35548 28.4863 6.32221 27.2437 6.36843 26.0027C6.38592 25.9291 6.38835 25.8526 6.37559 25.778C6.36282 25.7034 6.33512 25.6321 6.29415 25.5686C6.25318 25.505 6.19981 25.4505 6.13724 25.4082C6.07468 25.3659 6.00423 25.3368 5.93015 25.3227C5.78239 25.2928 5.62885 25.3221 5.50231 25.4043C5.37576 25.4865 5.28623 25.6151 5.25281 25.7627C4.73024 27.1624 4.41478 28.6315 4.31648 30.123V30.7631C3.83617 30.3928 3.47011 29.8935 3.26063 29.323C2.99145 28.3683 2.99145 27.3574 3.26063 26.4028C3.34813 25.7048 3.55717 25.0278 3.8782 24.4026C4.07952 24.0101 4.34179 23.6522 4.65515 23.3425C4.89421 23.1225 5.1532 22.9425 5.39226 22.7425L5.69109 22.8825C6.95194 23.2117 8.25411 23.3532 9.55592 23.3025C9.70914 23.3025 9.85609 23.2414 9.96444 23.1326C10.0728 23.0238 10.1337 22.8763 10.1337 22.7225C10.1337 22.5686 10.0728 22.4211 9.96444 22.3123C9.85609 22.2035 9.70914 22.1424 9.55592 22.1424C8.38849 22.1167 7.23228 21.9075 6.12937 21.5224C5.47194 21.2851 4.89275 20.8697 4.45594 20.3223C3.84131 19.6839 3.43858 18.8701 3.30303 17.9927C3.16748 17.1153 3.30577 16.2172 3.69891 15.4219C4.11908 14.6504 4.73445 14.0038 5.48294 13.5473C6.23144 13.0908 7.08659 12.8405 7.96217 12.8217C9.03859 12.7636 10.1093 13.0133 11.0501 13.5418C12.0105 14.0456 12.7854 14.8445 13.2614 15.8219C13.6498 16.8959 13.6069 18.0794 13.1418 19.1222C12.9473 19.6697 12.6361 20.1681 12.2302 20.5826C11.8242 20.9971 11.3331 21.3178 10.7911 21.5224C10.7096 21.5454 10.6334 21.5844 10.5671 21.6372C10.5008 21.6901 10.4456 21.7557 10.4048 21.8301C10.364 21.9046 10.3384 21.9865 10.3295 22.071C10.3206 22.1556 10.3285 22.241 10.3528 22.3224C10.3851 22.4305 10.4471 22.5272 10.5317 22.6015C10.6162 22.6758 10.7199 22.7247 10.8309 22.7425C10.8786 22.8512 10.9619 22.9403 11.067 22.9949C11.1721 23.0495 11.2927 23.0663 11.4086 23.0425C12.721 22.8043 13.9735 22.3081 15.0942 21.5824C16.2212 20.8464 17.2121 19.9191 18.0227 18.8422C18.2219 18.5621 18.6602 16.842 19.1383 16.062C19.1383 16.242 19.2977 16.462 19.3176 16.522C19.5668 17.002 19.6772 17.5424 19.6364 18.0821C19.5849 18.7124 19.444 19.332 19.218 19.9223C18.8839 20.8535 18.4139 21.7298 17.8235 22.5225C17.2474 23.3556 16.579 24.1206 15.8313 24.8026C15.3731 25.2427 14.3571 25.8027 13.8391 26.3627C13.588 26.573 13.3726 26.823 13.2016 27.1028C13.0668 27.4106 13.0186 27.7495 13.0622 28.0829C13.0622 28.6829 13.4208 29.623 13.4606 29.943C13.5801 30.9031 13.6997 31.9432 13.7395 32.8632C13.7993 33.8291 13.7993 34.7977 13.7395 35.7635C13.7167 35.855 13.7137 35.9503 13.7308 36.0431C13.7478 36.1359 13.7844 36.2239 13.8382 36.3013C13.892 36.3786 13.9616 36.4435 14.0425 36.4915C14.1233 36.5396 14.2135 36.5697 14.3069 36.5798C14.4003 36.5899 14.4948 36.5798 14.584 36.5501C14.6732 36.5204 14.755 36.4719 14.8239 36.4078C14.8929 36.3438 14.9473 36.2656 14.9837 36.1786C15.02 36.0916 15.0373 35.9978 15.0344 35.9035C15.1537 34.8811 15.2136 33.8526 15.2137 32.8232V29.783C15.2137 29.463 15.393 28.1629 15.0743 27.7829L17.3254 26.2427C18.2149 25.4952 19.011 24.6423 19.6961 23.7025C20.4064 22.7452 20.9704 21.6868 21.3696 20.5623C21.6906 19.617 21.8325 18.6198 21.7879 17.6221Z" fill="#618883"/>
<path fill-rule="evenodd" clip-rule="evenodd" d="M36.6899 4.33984C35.7137 5.0599 34.6977 5.73995 33.7215 6.34C32.763 6.99476 31.765 7.58928 30.7332 8.12013C30.036 8.52016 29.3188 8.86019 28.6016 9.20022C27.8844 9.54024 27.1274 9.92027 26.3704 10.2403C25.6133 10.5603 24.3782 11.0804 23.2626 11.4804C23.1893 11.5014 23.1209 11.5367 23.0612 11.5843C23.0016 11.6318 22.9518 11.6907 22.9148 11.7576C22.8778 11.8244 22.8543 11.898 22.8456 11.9739C22.8369 12.0499 22.8432 12.1269 22.8641 12.2004C22.885 12.274 22.9202 12.3427 22.9676 12.4026C23.0149 12.4625 23.0736 12.5124 23.1402 12.5496C23.2068 12.5867 23.28 12.6103 23.3557 12.6191C23.4314 12.6278 23.5081 12.6215 23.5813 12.6005C25.3126 12.3418 27.0285 11.9879 28.7211 11.5404C29.8391 11.1704 30.9197 10.6949 31.9485 10.1203C32.8015 9.58615 33.6199 8.99826 34.3988 8.36015C35.5344 7.42008 36.5902 6.36 37.666 5.35992C37.8008 5.22995 37.8785 5.05157 37.8823 4.86402C37.886 4.67647 37.8154 4.49511 37.6859 4.35984C37.5565 4.22457 37.3788 4.14647 37.192 4.14272C37.0052 4.13897 36.8246 4.20988 36.6899 4.33984Z" fill="#618883"/>
<path fill-rule="evenodd" clip-rule="evenodd" d="M27.207 12.961C27.0591 12.9246 26.9029 12.9483 26.7723 13.027C26.6417 13.1057 26.5474 13.2329 26.5097 13.381C26.135 14.176 25.8413 15.0069 25.6332 15.8612C25.5494 16.2295 25.4961 16.6042 25.4738 16.9813C25.454 17.3477 25.454 17.715 25.4738 18.0814C25.4738 18.9615 25.7129 19.7815 25.8523 20.6216C25.8523 20.7966 25.9216 20.9645 26.0449 21.0883C26.1682 21.2121 26.3354 21.2816 26.5097 21.2816C26.6841 21.2816 26.8513 21.2121 26.9746 21.0883C27.0979 20.9645 27.1671 20.7966 27.1671 20.6216C27.1671 19.8215 27.4261 19.0215 27.5457 18.1814C27.6051 17.844 27.645 17.5034 27.6652 17.1613V16.1212C27.6652 15.2812 27.5457 14.5011 27.6652 13.7011C27.6858 13.6222 27.6902 13.5399 27.678 13.4593C27.6659 13.3786 27.6375 13.3013 27.5947 13.2321C27.5518 13.1628 27.4953 13.103 27.4286 13.0564C27.362 13.0098 27.2866 12.9774 27.207 12.961Z" fill="#618883"/>
<path fill-rule="evenodd" clip-rule="evenodd" d="M32.9844 10.78C32.8341 10.763 32.6831 10.8058 32.5639 10.8993C32.4447 10.9928 32.3668 11.1295 32.3469 11.2801C31.9962 12.3387 31.7232 13.4217 31.5301 14.5203C31.454 14.997 31.4075 15.478 31.3906 15.9604V17.3805C31.3906 18.5006 31.6496 19.6007 31.809 20.7008C31.8192 20.8741 31.895 21.037 32.0209 21.156C32.1469 21.275 32.3134 21.3411 32.4863 21.3408C32.5727 21.3383 32.6577 21.3186 32.7364 21.283C32.8152 21.2474 32.8862 21.1966 32.9454 21.1335C33.0047 21.0703 33.0509 20.9961 33.0815 20.9149C33.1121 20.8338 33.1265 20.7475 33.1238 20.6608C33.1238 19.5607 33.3629 18.5006 33.4625 17.4205C33.4625 16.9605 33.4625 16.5005 33.5621 16.0404C33.6617 15.5804 33.5621 15.1204 33.5621 14.6603C33.5621 13.5802 33.4227 12.5202 33.4227 11.4201C33.4414 11.2779 33.4069 11.1337 33.326 11.0155C33.245 10.8973 33.1233 10.8134 32.9844 10.78Z" fill="#618883"/>
<path fill-rule="evenodd" clip-rule="evenodd" d="M36.6896 12.2815C36.6896 12.8615 36.5701 13.4616 36.5302 14.0616C36.5003 14.6546 36.5003 15.2488 36.5302 15.8418C36.6123 17.255 36.8054 18.6595 37.1079 20.0421C37.115 20.1275 37.1397 20.2105 37.1804 20.2859C37.221 20.3613 37.2768 20.4274 37.3442 20.48C37.4116 20.5326 37.4892 20.5707 37.5719 20.5917C37.6547 20.6127 37.7409 20.6163 37.8251 20.6021C37.9962 20.582 38.1525 20.4953 38.2606 20.3606C38.3686 20.226 38.4197 20.0542 38.4029 19.8821C38.4029 18.502 38.5224 17.1419 38.6021 15.7618C38.6021 14.8417 38.7615 13.9216 38.7615 13.0016C38.7615 11.4214 38.6619 9.86131 38.5822 8.30119C38.5876 8.22498 38.5779 8.14844 38.5538 8.07598C38.5297 8.00352 38.4915 7.93656 38.4416 7.87894C38.3916 7.82133 38.3307 7.77419 38.2626 7.74025C38.1944 7.7063 38.1202 7.68622 38.0443 7.68114C37.9694 7.67571 37.8942 7.68552 37.8232 7.70998C37.7521 7.73443 37.6868 7.77303 37.631 7.82345C37.5752 7.87388 37.5301 7.9351 37.4984 8.00344C37.4667 8.07178 37.4491 8.14584 37.4466 8.22118C37.1279 9.56129 36.8091 10.9014 36.6896 12.2815Z" fill="#618883"/>
<path fill-rule="evenodd" clip-rule="evenodd" d="M48.064 0.660051C45.2811 0.299242 42.4819 0.078948 39.677 0H33.4215C31.3297 0 29.2578 -1.11767e-07 27.186 0.120009H22.9028C20.7379 0.120009 18.5665 0.200016 16.3884 0.360028C13.9778 0.500039 11.5673 0.720055 9.15673 1.08008C9.00351 1.09865 8.86391 1.17757 8.76864 1.29948C8.67337 1.42138 8.63023 1.5763 8.64873 1.73013C8.66722 1.88397 8.74582 2.02413 8.86724 2.11978C8.98867 2.21543 9.14296 2.25874 9.29618 2.24017C10.4317 2.16017 11.5872 2.14016 12.7825 2.12016C12.7637 2.1855 12.7637 2.25485 12.7825 2.32018C12.5733 3.27125 12.4138 4.23263 12.3044 5.2004C12.2746 5.60655 12.2746 6.01435 12.3044 6.42049V7.66059C12.3044 8.62067 12.5833 9.56074 12.7227 10.5208C12.7329 10.6942 12.8087 10.857 12.9347 10.976C13.0606 11.095 13.2271 11.1612 13.4001 11.1609C13.5514 11.1368 13.689 11.0589 13.7878 10.9414C13.8865 10.8239 13.9398 10.6746 13.938 10.5208C14.0575 9.56074 14.197 8.52066 14.2766 7.64059V6.42049V5.2004C14.2766 4.22033 13.9579 3.32026 13.7985 2.36018V2.10016H14.7548C17.2649 2.10016 19.7751 2.22017 22.2852 2.28018H27.3454C29.0188 2.28018 31.2301 2.28018 33.1824 2.08016C36.0711 1.96015 38.9797 1.76014 41.8684 1.74013C43.0836 1.74013 44.2789 1.74013 45.4742 1.88015C45.3148 4.58035 45.1555 7.28056 45.0758 10.0008V14.6411V19.3015C45.0758 20.8616 44.9164 22.3817 44.7371 23.9218C44.714 24.0964 44.7592 24.2731 44.8632 24.4149C44.9673 24.5567 45.122 24.6524 45.2949 24.6819C45.4665 24.7047 45.6401 24.6588 45.778 24.5539C45.916 24.4491 46.0073 24.2938 46.032 24.1219C46.6821 21.0245 47.0951 17.8818 47.2672 14.7211C47.2672 12.841 47.3668 10.9408 47.2672 9.0607C47.2672 6.66051 46.9683 4.28033 46.809 1.92015H48.084C48.2426 1.91531 48.3942 1.853 48.5107 1.74473C48.6271 1.63645 48.7006 1.48953 48.7176 1.33107C48.7346 1.17262 48.694 1.01335 48.6031 0.882658C48.5123 0.751968 48.3774 0.65869 48.2234 0.620048L48.064 0.660051Z" fill="#618883"/>
<path fill-rule="evenodd" clip-rule="evenodd" d="M43.7022 23.8018C41.5198 24.1371 39.3158 24.3109 37.1081 24.3218H30.9323H21.5292C21.3771 24.3159 21.2286 24.3686 21.1138 24.4689C20.999 24.5693 20.9267 24.7098 20.9116 24.8618C20.9062 24.938 20.9158 25.0146 20.94 25.087C20.9641 25.1595 21.0022 25.2265 21.0522 25.2841C21.1022 25.3417 21.163 25.3888 21.2312 25.4228C21.2994 25.4567 21.3736 25.4768 21.4495 25.4819C23.4417 25.7419 25.4339 26.0219 27.3065 26.2619C27.2415 26.404 27.1882 26.5512 27.1471 26.702C27.1275 26.8681 27.1275 27.0359 27.1471 27.202C27.1295 27.3682 27.1295 27.5358 27.1471 27.7021C27.1557 27.8019 27.1557 27.9023 27.1471 28.0021C26.6686 28.1835 26.2458 28.4877 25.9207 28.8842C25.5957 29.2808 25.3797 29.7559 25.2944 30.2623C25.2944 30.3623 24.7366 33.8625 29.1393 33.5025C30.7729 33.5025 31.4702 32.0824 31.4104 30.6623C31.3722 29.995 31.1269 29.3565 30.7088 28.8364C30.2908 28.3163 29.7211 27.9406 29.0796 27.7621C29.0882 27.7225 29.0882 27.6816 29.0796 27.6421C29.099 27.4759 29.099 27.3081 29.0796 27.142C29.1082 26.9766 29.1082 26.8074 29.0796 26.642V26.482C30.2151 26.582 31.3307 26.642 32.4663 26.642C33.6018 26.642 34.7573 26.642 35.8928 26.542C38.5835 26.3577 41.2512 25.9225 43.8615 25.2419C44.0333 25.2047 44.1833 25.1006 44.2785 24.9525C44.3738 24.8043 44.4065 24.6242 44.3696 24.4518C44.3326 24.2794 44.2289 24.1288 44.0813 24.0332C43.9337 23.9375 43.7544 23.9046 43.5826 23.9418L43.7022 23.8018ZM29.7569 30.7423C29.8764 31.3023 29.7569 31.9424 29.1792 32.0424C29.1792 32.0424 27.187 33.0425 27.187 30.9023C27.2242 30.6033 27.3653 30.3271 27.5854 30.1222C27.734 29.9592 27.9226 29.8383 28.1324 29.7716C28.3422 29.7049 28.5658 29.6948 28.7807 29.7422C29.0274 29.7802 29.2548 29.8988 29.4277 30.0796C29.6005 30.2603 29.7092 30.4933 29.737 30.7423H29.7569Z" fill="#618883"/>
</svg>
