<svg width="80" height="80" viewBox="0 0 80 80" fill="none" xmlns="http://www.w3.org/2000/svg">
<rect width="80" height="80" rx="40" fill="#E5F4F2"/>
<g clip-path="url(#clip0_3723_36593)">
<path fill-rule="evenodd" clip-rule="evenodd" d="M23.2456 26.5608C23.6698 26.6458 24.0982 26.7081 24.529 26.7475C24.549 26.8875 24.611 27.0183 24.7068 27.1224C24.8026 27.2265 24.9277 27.2992 25.0656 27.3308C26.0312 27.5511 26.9536 27.9295 27.7956 28.4508C28.5763 28.9309 29.1692 29.6637 29.4756 30.5275C29.5657 30.7913 29.6206 31.0659 29.639 31.3441V32.8375V33.9341C29.6319 34.1794 29.7091 34.4198 29.8577 34.6151C30.0063 34.8104 30.2173 34.9489 30.4556 35.0075C30.5953 35.0415 30.7406 35.0466 30.8823 35.0222C31.024 34.9979 31.1592 34.9447 31.2796 34.8659C31.3999 34.7872 31.5028 34.6845 31.5818 34.5644C31.6608 34.4442 31.7143 34.3091 31.739 34.1675V32.8141C31.8813 32.3459 32.0688 31.8927 32.299 31.4608C32.4917 31.0489 32.7262 30.658 32.999 30.2941C33.3985 29.8311 33.8715 29.4369 34.399 29.1275C34.978 28.7795 35.578 28.4678 36.1956 28.1941C36.5456 28.0308 37.3856 27.8208 37.8756 27.5408C38.1817 27.3996 38.4467 27.1828 38.6456 26.9108C38.8318 26.6838 38.9215 26.3929 38.8953 26.1005C38.8691 25.8081 38.7292 25.5377 38.5056 25.3475C38.2789 25.1271 37.9811 24.9948 37.6656 24.9741C37.3005 24.9979 36.9341 24.9979 36.569 24.9741L35.3323 24.6475C34.9369 24.5102 34.5543 24.3384 34.189 24.1341C33.3779 23.8069 32.7085 23.2036 32.299 22.4308C31.8901 21.5004 31.6076 20.5195 31.459 19.5141C31.4022 19.24 31.2542 18.9932 31.039 18.8141C30.7823 18.6508 29.6623 18.3241 29.499 19.4908V20.9375C29.4585 21.373 29.3725 21.8032 29.2423 22.2208C29.148 22.6321 29.0071 23.0314 28.8223 23.4108C28.6098 23.8503 28.3065 24.2398 27.9325 24.5535C27.5584 24.8672 27.1221 25.098 26.6523 25.2308C25.594 25.5083 24.4898 25.5639 23.409 25.3941C23.3324 25.3834 23.2544 25.3879 23.1795 25.4073C23.1046 25.4267 23.0343 25.4606 22.9726 25.5072C22.9108 25.5538 22.8588 25.6121 22.8196 25.6788C22.7804 25.7454 22.7547 25.8192 22.744 25.8958C22.7332 25.9724 22.7377 26.0504 22.7571 26.1252C22.7765 26.2001 22.8105 26.2704 22.8571 26.3322C22.9037 26.3939 22.962 26.4459 23.0286 26.4851C23.0953 26.5244 23.169 26.5501 23.2456 26.5608ZM27.7956 26.3275C28.8373 25.9189 29.7037 25.1597 30.2456 24.1808L30.6656 23.6675L30.9456 24.1575C31.5313 25.0394 32.3351 25.7548 33.279 26.2341C33.6096 26.4208 33.9526 26.5845 34.3056 26.7241C33.7866 26.9911 33.2875 27.2953 32.8123 27.6341C32.2571 28.0374 31.7689 28.5256 31.3656 29.0808C31.2048 29.2678 31.064 29.4711 30.9456 29.6875C30.5417 28.8952 29.9584 28.2081 29.2423 27.6808C28.6278 27.2355 27.9518 26.8818 27.2356 26.6308L27.7956 26.3275Z" fill="#618883"/>
<path fill-rule="evenodd" clip-rule="evenodd" d="M61.3506 43.7798C61.3506 39.9531 60.9772 36.5698 60.8839 34.9131C60.8777 34.8246 60.8513 34.7386 60.8068 34.6618C60.7624 34.5849 60.7009 34.5193 60.6272 34.4698C60.5225 34.0119 60.306 33.587 59.9972 33.2331C59.5675 32.7951 59.0614 32.4393 58.5039 32.1831C57.7643 31.8326 56.9787 31.5891 56.1706 31.4598C56.0829 31.4431 55.9928 31.4446 55.9058 31.4642C55.8187 31.4837 55.7366 31.5208 55.6645 31.5733C55.5923 31.6257 55.5317 31.6924 55.4863 31.7692C55.4409 31.846 55.4117 31.9313 55.4006 32.0198C55.3838 32.1057 55.3845 32.1941 55.4026 32.2798C55.4206 32.3655 55.4558 32.4466 55.5058 32.5184C55.5559 32.5903 55.6199 32.6513 55.694 32.6979C55.7681 32.7445 55.8508 32.7758 55.9372 32.7898C56.5107 32.9065 57.0673 33.0946 57.5939 33.3498C58.0859 33.5614 58.5243 33.8803 58.8772 34.2831C58.989 34.4358 59.0675 34.6102 59.1077 34.795C59.1479 34.9799 59.1489 35.1712 59.1106 35.3564C59.0976 35.5308 59.0471 35.7003 58.9625 35.8534C58.8779 36.0064 58.7613 36.1394 58.6206 36.2431C57.6795 36.8172 56.6162 37.161 55.5172 37.2464C53.7605 37.4963 51.9773 37.4963 50.2206 37.2464C49.8814 37.2011 49.5461 37.1309 49.2172 37.0364C48.8835 36.9406 48.5562 36.8237 48.2372 36.6864L47.0006 36.0098C46.8221 35.9068 46.6662 35.7691 46.5419 35.6048C46.4177 35.4404 46.3277 35.2528 46.2772 35.0531C46.2941 34.8083 46.3684 34.5709 46.494 34.3601C46.6197 34.1493 46.7932 33.9711 47.0006 33.8398C47.8797 33.1611 48.888 32.6688 49.9639 32.3931C51.0445 32.0677 52.1828 31.9801 53.3006 32.1364C53.3756 32.1518 53.453 32.1521 53.5282 32.1376C53.6034 32.123 53.675 32.0938 53.739 32.0515C53.8029 32.0092 53.8578 31.9548 53.9007 31.8913C53.9436 31.8278 53.9736 31.7565 53.9889 31.6814C54.0042 31.6064 54.0046 31.529 53.99 31.4538C53.9754 31.3786 53.9462 31.307 53.904 31.243C53.8617 31.1791 53.8073 31.1242 53.7438 31.0813C53.6803 31.0384 53.609 31.0084 53.5339 30.9931C52.2515 30.7002 50.9196 30.7002 49.6372 30.9931C48.3299 31.2189 47.0782 31.6942 45.9506 32.3931C45.4804 32.6666 45.0825 33.0486 44.7902 33.5073C44.498 33.9661 44.3198 34.4881 44.2706 35.0298C44.2322 35.8252 44.4899 36.6066 44.9939 37.2231C44.6906 39.2764 44.4106 41.8898 44.2706 44.6664C44.2706 45.9498 44.2706 47.2564 44.1306 48.5864C43.9906 49.9164 44.1306 51.2231 44.1306 52.5064C44.1306 53.7898 44.1306 54.8398 44.2939 56.0531C44.1746 55.9743 44.0498 55.9042 43.9206 55.8431C43.181 55.4926 42.3954 55.2491 41.5872 55.1198C41.4166 55.1015 41.2453 55.1487 41.1082 55.2519C40.971 55.3551 40.8782 55.5066 40.8486 55.6757C40.8189 55.8447 40.8546 56.0187 40.9484 56.1625C41.0423 56.3062 41.1872 56.4089 41.3539 56.4498C41.9274 56.5665 42.4839 56.7546 43.0106 57.0098C43.5062 57.2268 43.9512 57.5447 44.3172 57.9431C44.4126 58.0833 44.4763 58.2425 44.5039 58.4098V58.5498C44.5039 58.8998 44.3406 59.2498 44.2706 59.6231L44.0139 59.9031C43.082 60.4786 42.0259 60.8227 40.9339 60.9064C39.1694 61.1563 37.3784 61.1563 35.6139 60.9064C35.2639 60.9064 34.9372 60.7664 34.6106 60.6964C34.2832 60.6043 33.9634 60.4873 33.6539 60.3464L32.3939 59.7631C32.1866 59.656 32.0083 59.5003 31.8743 59.3093C31.7402 59.1183 31.6543 58.8978 31.6239 58.6664C31.6426 58.4189 31.7174 58.1789 31.8427 57.9646C31.9681 57.7503 32.1406 57.5674 32.3472 57.4298C33.2432 56.7644 34.2564 56.2736 35.3339 55.9831C36.4102 55.6765 37.5385 55.5971 38.6472 55.7498C38.7223 55.767 38.8001 55.7691 38.876 55.7561C38.9519 55.7431 39.0245 55.7152 39.0896 55.674C39.1547 55.6328 39.211 55.5791 39.2552 55.516C39.2994 55.4529 39.3307 55.3817 39.3472 55.3064C39.3825 55.1519 39.3559 54.9896 39.273 54.8544C39.1902 54.7192 39.0577 54.6218 38.9039 54.5831C37.6111 54.3139 36.2767 54.3139 34.9839 54.5831C33.6781 54.8274 32.4284 55.3098 31.2972 56.0064C30.827 56.2799 30.4292 56.662 30.1369 57.1207C29.8446 57.5794 29.6664 58.1014 29.6172 58.6431C29.6013 59.0903 29.6809 59.5357 29.8506 59.9498C29.8506 60.3231 29.7106 60.6731 29.6639 61.0464C29.6408 61.3883 29.6408 61.7313 29.6639 62.0731C29.6385 62.4226 29.6385 62.7736 29.6639 63.1231C29.7465 63.7395 29.8792 64.3482 30.0606 64.9431C29.9537 65.0522 29.8938 65.1988 29.8938 65.3514C29.8938 65.5041 29.9537 65.6507 30.0606 65.7598C30.6162 66.2535 31.2363 66.6695 31.9039 66.9964C32.5466 67.3048 33.2092 67.5699 33.8872 67.7898C34.6504 68.0113 35.4309 68.1674 36.2206 68.2564C36.9965 68.3318 37.7779 68.3318 38.5539 68.2564C40.1905 68.0613 41.7747 67.5544 43.2206 66.7631C43.3036 66.7302 43.3791 66.6806 43.4422 66.6174C43.5053 66.5542 43.5548 66.4787 43.5876 66.3956C43.6204 66.3125 43.6358 66.2235 43.6329 66.1342C43.63 66.045 43.6087 65.9572 43.5706 65.8764C43.5377 65.7934 43.4881 65.718 43.4248 65.6548C43.3616 65.5917 43.2861 65.5422 43.203 65.5094C43.1199 65.4766 43.031 65.4612 42.9417 65.4641C42.8524 65.467 42.7647 65.4883 42.6839 65.5264C41.6117 65.8766 40.4972 66.0807 39.3706 66.1331C38.5316 66.1914 37.6895 66.1914 36.8506 66.1331C36.007 66.1006 35.1658 66.0227 34.3306 65.8998C33.5808 65.8376 32.8386 65.7048 32.1139 65.5031L31.5072 65.2464C31.5072 64.5231 31.6472 63.8231 31.6939 63.0998V62.1664L32.5806 62.5631C32.9716 62.7452 33.3775 62.8936 33.7939 63.0064L35.0772 63.2864C37.0638 63.5997 39.0873 63.5997 41.0739 63.2864C42.0739 63.1166 43.0419 62.7939 43.9439 62.3298C43.9324 62.4462 43.9324 62.5634 43.9439 62.6798C44.0839 63.4498 44.2706 64.1964 44.4339 65.0131C44.4398 65.102 44.4632 65.1889 44.5028 65.2688C44.5424 65.3486 44.5974 65.4199 44.6646 65.4784C44.7319 65.537 44.81 65.5816 44.8945 65.6099C44.979 65.6382 45.0683 65.6495 45.1572 65.6431C45.2451 65.6402 45.3315 65.6196 45.4112 65.5825C45.491 65.5454 45.5624 65.4926 45.6212 65.4272C45.68 65.3618 45.7251 65.2853 45.7536 65.2021C45.7821 65.1189 45.7936 65.0308 45.7872 64.9431C45.7872 64.3364 45.9272 63.7764 46.0206 63.1931C47.1968 63.8813 48.4716 64.3849 49.8006 64.6864C50.5656 64.8658 51.3482 64.9597 52.1339 64.9664C52.9159 64.9803 53.6974 64.9178 54.4672 64.7798C56.3389 64.4732 58.1359 63.8161 59.7639 62.8431C59.8429 62.8058 59.9136 62.753 59.9718 62.6878C60.0301 62.6227 60.0746 62.5465 60.1029 62.4639C60.1312 62.3812 60.1426 62.2937 60.1365 62.2065C60.1304 62.1194 60.1068 62.0343 60.0672 61.9564C60.0301 61.8744 59.9764 61.8008 59.9095 61.7405C59.8426 61.6802 59.764 61.6343 59.6785 61.6058C59.5931 61.5774 59.5027 61.5669 59.4129 61.575C59.3232 61.5831 59.2362 61.6097 59.1572 61.6531C57.5781 62.2446 55.9178 62.5908 54.2339 62.6798H52.0872C51.3872 62.6798 50.6639 62.6798 49.9639 62.5164C48.5929 62.3988 47.2435 62.1007 45.9506 61.6298V60.6964C45.789 59.5432 45.789 58.373 45.9506 57.2198C47.1388 57.9057 48.4197 58.4165 49.7539 58.7364C51.3567 59.0474 53.0044 59.0474 54.6072 58.7364C56.2351 58.4506 57.8091 57.9154 59.2739 57.1498C59.2739 58.6198 59.2739 59.8331 59.3906 60.6264C59.3722 60.7242 59.3756 60.8248 59.4005 60.9211C59.4254 61.0174 59.4712 61.107 59.5347 61.1835C59.5982 61.2601 59.6778 61.3217 59.7678 61.364C59.8579 61.4063 59.9561 61.4282 60.0556 61.4282C60.155 61.4282 60.2533 61.4063 60.3433 61.364C60.4333 61.3217 60.5129 61.2601 60.5764 61.1835C60.6399 61.107 60.6857 61.0174 60.7106 60.9211C60.7356 60.8248 60.7389 60.7242 60.7206 60.6264C60.8372 58.9931 61.0706 55.6098 61.2339 51.7831V47.9798C61.2339 46.6964 61.3972 45.0164 61.3506 43.7798ZM46.2539 48.4464V44.5498C46.2423 44.3477 46.2423 44.1452 46.2539 43.9431C47.3743 44.5654 48.5758 45.0287 49.8239 45.3198C50.5889 45.4992 51.3715 45.5931 52.1572 45.5998C52.9392 45.6136 53.7207 45.5511 54.4906 45.4131C56.0511 45.1458 57.5617 44.6422 58.9706 43.9198V47.5831V48.6564C57.4689 49.1937 55.8967 49.5082 54.3039 49.5898H52.1572C51.4572 49.5898 50.7339 49.5898 50.0339 49.4498C48.6884 49.3288 47.3635 49.0388 46.0906 48.5864L46.2539 48.4464ZM47.2806 38.7164C47.6762 38.8807 48.0814 39.021 48.4939 39.1364C48.9165 39.252 49.3449 39.3454 49.7772 39.4164C51.7568 39.7191 53.7709 39.7191 55.7506 39.4164C57.1079 39.2108 58.3961 38.6827 59.5072 37.8764C59.5072 39.1831 59.3206 40.6998 59.2506 42.3798C57.7142 42.9443 56.1018 43.2746 54.4672 43.3598H52.3206C51.6206 43.3598 50.8972 43.3598 50.1972 43.2198C48.8526 43.0796 47.5291 42.782 46.2539 42.3331V38.2264L47.2806 38.7164ZM54.4672 56.2164H52.3206C51.6206 56.2164 50.8972 56.2164 50.1972 56.0764C48.7935 55.9457 47.4129 55.6319 46.0906 55.1431V52.3198V50.1731C47.2241 50.8134 48.4414 51.2925 49.7072 51.5964C50.4758 51.755 51.2563 51.8487 52.0406 51.8764C52.8226 51.8903 53.604 51.8278 54.3739 51.6898C55.926 51.4187 57.4285 50.9153 58.8306 50.1964V51.3631C58.8306 52.7164 58.8306 54.0231 58.9472 55.1898C57.5109 55.7412 56.0015 56.0793 54.4672 56.1931V56.2164Z" fill="#618883"/>
<path fill-rule="evenodd" clip-rule="evenodd" d="M34.9137 52.4138C35.0014 52.4234 35.0901 52.4152 35.1746 52.3896C35.259 52.364 35.3374 52.3216 35.405 52.2649C35.4726 52.2082 35.528 52.1385 35.5679 52.0598C35.6077 51.9811 35.6313 51.8951 35.6371 51.8071C35.8439 50.7057 35.9686 49.5904 36.0104 48.4704V47.0704C35.988 46.6094 35.9413 46.1499 35.8704 45.6938C35.7304 44.6904 35.5437 43.8504 35.4037 43.3604C35.4501 42.9427 35.4097 42.5199 35.2853 42.1184C35.1608 41.7169 34.9549 41.3454 34.6804 41.0271C34.2497 40.5797 33.7341 40.2227 33.1637 39.9771C32.4303 39.6111 31.6422 39.3668 30.8304 39.2538C30.7445 39.237 30.656 39.2377 30.5704 39.2558C30.4847 39.2739 30.4036 39.309 30.3317 39.359C30.2599 39.4091 30.1989 39.4731 30.1523 39.5472C30.1056 39.6213 30.0744 39.704 30.0604 39.7904C30.0435 39.8778 30.0439 39.9676 30.0617 40.0548C30.0795 40.1419 30.1144 40.2247 30.1642 40.2984C30.2141 40.3721 30.2779 40.4352 30.3522 40.4842C30.4265 40.5332 30.5097 40.567 30.5971 40.5838C31.1745 40.6854 31.7331 40.8743 32.2537 41.1438C32.7561 41.3487 33.2036 41.6683 33.5604 42.0771C33.6678 42.2275 33.7438 42.398 33.7838 42.5784C33.8239 42.7588 33.8273 42.9454 33.7937 43.1271C33.7754 43.3059 33.7203 43.4791 33.632 43.6357C33.5436 43.7922 33.424 43.9289 33.2804 44.0371C32.3438 44.6023 31.2902 44.9456 30.2004 45.0404C28.4359 45.291 26.6449 45.291 24.8804 45.0404C24.5131 44.9453 24.1541 44.8204 23.8071 44.6671C23.4803 44.5828 23.1605 44.4736 22.8504 44.3404L21.5904 43.7571C21.385 43.6503 21.2092 43.4942 21.0789 43.3028C20.9486 43.1115 20.8678 42.8907 20.8437 42.6604C20.8597 42.4149 20.931 42.1761 21.0522 41.962C21.1734 41.7479 21.3414 41.5639 21.5437 41.4238C22.4442 40.7713 23.4564 40.2889 24.5304 40.0004C25.6047 39.6825 26.7355 39.6029 27.8437 39.7671C27.9219 39.7842 28.0026 39.7857 28.0814 39.7715C28.1601 39.7573 28.2353 39.7277 28.3025 39.6843C28.3697 39.6409 28.4277 39.5847 28.4731 39.5188C28.5185 39.4529 28.5504 39.3787 28.5671 39.3004C28.5892 39.1468 28.5538 38.9903 28.4677 38.8611C28.3816 38.7319 28.2508 38.6391 28.1004 38.6004C26.8155 38.3311 25.4887 38.3311 24.2037 38.6004C22.8985 38.8338 21.6482 39.3086 20.5171 40.0004C20.0403 40.2661 19.6371 40.6462 19.3439 41.1065C19.0506 41.5668 18.8764 42.0928 18.8371 42.6371C18.8052 43.0581 18.8691 43.4809 19.0237 43.8738C18.8406 45.0178 18.716 46.1704 18.6504 47.3271V49.6604C18.6504 50.5004 18.6504 51.1771 18.7904 51.9938C18.9304 53.7204 19.1637 55.2838 19.3504 56.4971C19.276 56.6325 19.2539 56.7904 19.2883 56.941C19.3227 57.0915 19.4113 57.2242 19.5371 57.3138L19.7237 57.4538C19.7735 57.5273 19.8369 57.5906 19.9104 57.6404C20.4248 58.1113 20.988 58.5258 21.5904 58.8771C21.9155 59.0727 22.2701 59.2146 22.6404 59.2971C22.9948 59.4162 23.3637 59.4868 23.7371 59.5071C24.5824 59.5983 25.4351 59.5983 26.2804 59.5071C26.3781 59.5255 26.4787 59.5221 26.575 59.4972C26.6713 59.4723 26.7609 59.4264 26.8375 59.3629C26.914 59.2994 26.9757 59.2199 27.018 59.1298C27.0602 59.0398 27.0822 58.9416 27.0822 58.8421C27.0822 58.7427 27.0602 58.6444 27.018 58.5544C26.9757 58.4644 26.914 58.3848 26.8375 58.3213C26.7609 58.2578 26.6713 58.2119 26.575 58.187C26.4787 58.1621 26.3781 58.1587 26.2804 58.1771C25.4171 57.9671 24.7171 57.6871 23.9471 57.4771L22.5237 57.0105L20.7504 56.3338V52.1338C21.9045 52.7883 23.1458 53.2754 24.4371 53.5804C25.2039 53.7491 25.9854 53.8428 26.7704 53.8604C27.5523 53.8726 28.3337 53.8101 29.1037 53.6738C30.8375 53.3661 32.5088 52.7749 34.0504 51.9238C34.0684 52.0164 34.1062 52.104 34.1612 52.1806C34.2163 52.2572 34.2872 52.3209 34.3693 52.3675C34.4513 52.4141 34.5424 52.4423 34.6364 52.4503C34.7304 52.4583 34.825 52.4458 34.9137 52.4138ZM29.1504 51.4804H27.0037C26.2804 51.4804 25.6037 51.4804 24.8804 51.3171C23.5111 51.1883 22.1631 50.8905 20.8671 50.4304V49.3804V47.1638V45.6704L21.1471 45.8338C21.4723 46.0084 21.8073 46.1642 22.1504 46.3004C22.5441 46.4761 22.9495 46.6242 23.3637 46.7438C23.7785 46.8593 24.1991 46.9527 24.6237 47.0238C26.6112 47.3256 28.6329 47.3256 30.6204 47.0238C31.7787 46.8527 32.8901 46.4479 33.8871 45.8338V47.2104V48.5871C33.8871 49.0304 34.0971 49.9404 34.1671 50.4771C32.5635 51.0923 30.8673 51.4316 29.1504 51.4804Z" fill="#618883"/>
<path fill-rule="evenodd" clip-rule="evenodd" d="M41.144 17.3906C42.1006 17.3906 42.9873 17.764 43.944 17.9273H44.154V18.0673C44.2557 19.0889 44.4272 20.1024 44.6673 21.1006C44.6792 21.2781 44.7581 21.4444 44.8881 21.5657C45.0181 21.6871 45.1895 21.7544 45.3673 21.754C45.5468 21.7365 45.7133 21.6527 45.8341 21.5189C45.955 21.3851 46.0215 21.2109 46.0206 21.0306C46.0206 20.0273 46.3006 19.0706 46.394 18.044H46.534C47.5547 17.9535 48.5634 17.758 49.544 17.4606C49.7075 17.4116 49.8464 17.3027 49.933 17.1555C50.0195 17.0084 50.0473 16.834 50.0106 16.6673C49.9835 16.5065 49.901 16.3602 49.7775 16.2537C49.6539 16.1471 49.4971 16.0871 49.334 16.084C48.4132 16.0613 47.4942 15.9912 46.5806 15.874C46.5806 14.8006 46.4406 13.7506 46.4406 12.6773C46.4509 12.59 46.442 12.5014 46.4146 12.4179C46.3873 12.3343 46.342 12.2577 46.2821 12.1933C46.2222 12.1289 46.149 12.0784 46.0676 12.0451C45.9862 12.0118 45.8985 11.9967 45.8106 12.0006C45.6542 11.9864 45.498 12.0312 45.3728 12.1261C45.2476 12.2211 45.1624 12.3594 45.134 12.514C44.8018 13.4763 44.5291 14.4582 44.3173 15.454C44.3173 15.454 44.3173 15.664 44.3173 15.7573C43.2497 15.8231 42.1888 15.9714 41.144 16.2006C41.0663 16.2004 40.9895 16.2162 40.9183 16.2473C40.8471 16.2783 40.7832 16.3238 40.7305 16.3808C40.6779 16.4378 40.6377 16.5052 40.6124 16.5786C40.5872 16.6521 40.5775 16.7299 40.584 16.8073C40.5893 16.9564 40.6493 17.0983 40.7526 17.2059C40.8559 17.3135 40.9952 17.3793 41.144 17.3906Z" fill="#618883"/>
</g>
<defs>
<clipPath id="clip0_3723_36593">
<rect width="56" height="56" fill="white" transform="translate(12 12)"/>
</clipPath>
</defs>
</svg>
