<svg width="80" height="80" viewBox="0 0 80 80" fill="none" xmlns="http://www.w3.org/2000/svg">
<rect width="80" height="80" rx="40" fill="#E5F4F2"/>
<path fill-rule="evenodd" clip-rule="evenodd" d="M61.7281 31.256C60.7388 30.3629 59.4736 29.8354 58.1429 29.761C56.8122 29.6867 55.4961 30.0701 54.4135 30.8475C53.5086 31.6554 52.8195 32.6762 52.4085 33.8175C51.9975 34.9588 51.8776 36.1846 52.0596 37.3839C51.9853 37.5792 51.8728 37.7578 51.7289 37.9092C50.7951 36.9754 50.62 36.6058 50.1337 36.314C49.6018 36.0453 49.0219 35.8846 48.4276 35.8412C47.8332 35.7978 47.2362 35.8725 46.6709 36.0611C46.1363 36.2488 45.6918 36.6307 45.4259 37.131C44.2305 37.6336 43.2518 38.5434 42.6634 39.6989C41.788 41.8388 43.1498 43.5897 44.3364 45.3405C44.9189 46.2079 45.5694 47.0275 46.2818 47.7917C48.2745 49.5135 50.638 50.7519 53.1879 51.4101C53.78 51.4419 54.3709 51.3292 54.9098 51.0818C55.4486 50.8344 55.9192 50.4597 56.2811 49.99C57.5261 48.5699 59.1213 46.4299 58.5961 44.6985C57.7012 41.6638 54.8998 41.547 55.9309 43.0839C56.456 43.6512 56.8715 44.3107 57.1565 45.0293C57.1838 45.2224 57.1704 45.4192 57.1173 45.6069C57.0641 45.7946 56.9723 45.9692 56.8478 46.1194C56.7232 46.2695 56.5687 46.3921 56.394 46.479C56.2194 46.566 56.0285 46.6156 55.8336 46.6245C54.1995 46.7996 49.5111 43.2784 48.0521 40.4382C47.5662 39.7881 47.2156 39.0473 47.0211 38.2593C47.0211 37.0727 48.9664 37.0338 49.6668 37.3645L51.1064 38.6873C50.4644 39.3293 49.6084 40.1658 50.192 40.6327C50.3002 40.7339 50.4427 40.7902 50.5908 40.7902C50.7389 40.7902 50.8815 40.7339 50.9896 40.6327C51.2814 39.8351 53.0517 38.9013 53.5381 37.6952C54.0244 36.4891 53.149 35.3218 54.8609 33.1236C55.5124 32.3505 56.4391 31.8613 57.4449 31.7596C58.4508 31.658 59.4567 31.9518 60.2496 32.5788C61.9421 34.3686 61.0667 38.7068 58.3043 39.3099C57.2537 39.5628 56.3589 39.3099 55.3862 40.088C54.9186 40.5269 54.5011 41.0163 54.1411 41.547C53.577 42.3057 52.8961 42.9672 53.7132 43.3173C54.5302 43.6675 54.608 43.1228 55.2111 42.403C55.5225 41.9806 55.8815 41.5954 56.2811 41.2552C56.9036 40.8272 57.7595 41.2552 58.9851 40.8856C59.8914 40.5369 60.7042 39.9822 61.3594 39.2654C62.0145 38.5486 62.494 37.6893 62.7601 36.7554C63.0261 35.8215 63.0713 34.8385 62.8923 33.8841C62.7132 32.9297 62.3146 32.0299 61.7281 31.256ZM48.6552 44.8736C50.0948 46.2549 53.2657 48.5309 55.5418 48.4531C54.8609 49.2118 54.0828 49.9122 53.1295 49.6009C50.2089 48.6288 47.7141 46.677 46.0678 44.076C45.3928 43.354 44.8112 42.5501 44.3364 41.6832C44.1224 41.2616 44.0541 40.781 44.1421 40.3164C44.23 39.8518 44.4694 39.4295 44.8228 39.1153L45.134 38.8624C45.7056 41.1797 46.9273 43.2855 48.6552 44.932V44.8736Z" fill="#618883"/>
<path fill-rule="evenodd" clip-rule="evenodd" d="M40.9315 58.6467C38.9397 59.4168 36.8628 59.9458 34.7452 60.2224C32.5664 60.4559 30.8545 60.9617 29.7067 60.9422C29.5705 60.9422 29.4149 60.8061 29.3565 60.845C26.7303 55.3979 17.7621 26.8592 17.4508 26.334C17.3951 26.2334 17.3109 26.1515 17.2088 26.0986C17.1068 26.0457 16.9913 26.0242 16.877 26.0366C16.7627 26.0491 16.6547 26.0951 16.5664 26.1687C16.4781 26.2424 16.4136 26.3405 16.3809 26.4507C16.3809 26.6258 20.6996 42.7335 21.1859 44.3871C22.9466 50.3266 25.1311 56.1323 27.7224 61.7593C28.7729 63.7047 31.8077 62.2651 34.9592 61.7593C37.144 61.3435 39.277 60.6912 41.3206 59.8139C41.4223 59.7287 41.4959 59.6148 41.532 59.4871C41.5681 59.3594 41.565 59.2239 41.523 59.098C41.4811 58.9721 41.4022 58.8618 41.2968 58.7813C41.1913 58.7008 41.064 58.6539 40.9315 58.6467Z" fill="#618883"/>
<path fill-rule="evenodd" clip-rule="evenodd" d="M18.1127 25.0891C23.806 22.9727 29.6613 21.3202 35.6211 20.1478C37.4211 19.7476 39.2482 19.481 41.0876 19.3502C40.8347 21.2956 39.4535 26.8399 42.2743 27.1317C44.9596 27.0238 47.5128 25.9375 49.4527 24.0775C50.1141 27.0539 49.764 25.6922 51.009 30.2249C51.0669 30.354 51.1697 30.4577 51.2984 30.5167C51.427 30.5756 51.5727 30.5859 51.7083 30.5454C51.844 30.505 51.9603 30.4166 52.0356 30.2968C52.1109 30.177 52.1402 30.0339 52.1179 29.8942C51.5729 27.6568 51.1572 25.39 50.8728 23.1048C50.6588 21.6069 43.5971 16.938 40.5623 17.2687C31.5552 18.0468 23.6764 21.6263 17.5874 23.9024C17.43 23.9721 17.3068 24.1014 17.2448 24.2619C17.1828 24.4224 17.187 24.601 17.2567 24.7584C17.3263 24.9157 17.4557 25.039 17.6162 25.101C17.7767 25.163 17.9553 25.1587 18.1127 25.0891ZM48.5773 22.9103C47.7602 24.058 44.3364 24.8556 42.7411 24.8556C42.4792 23.1111 42.3685 21.3472 42.4104 19.5837C44.5987 20.4269 46.6709 21.5447 48.5773 22.9103Z" fill="#618883"/>
<path fill-rule="evenodd" clip-rule="evenodd" d="M59.7638 51.4487C58.6549 51.4487 59.9388 53.0634 57.9935 56.6429L52.2935 54.4057C51.7683 54.2111 52.0601 54.1528 45.8932 58.1992C45.2999 56.4165 44.6049 54.6693 43.8117 52.9661C43.0141 51.8767 40.2516 52.791 36.3414 53.5108C39.1428 49.3866 39.6291 48.7835 38.812 48.0248C37.995 47.2661 33.7152 44.6204 33.2677 43.9395C33.7541 43.7061 34.61 43.3365 35.466 42.9863C37.8783 42.0331 38.1701 42.2665 38.3452 41.5662C38.5202 40.8658 37.9172 37.6754 38.0533 36.5082C38.2868 36.5082 37.8394 36.372 41.127 37.0918C41.2973 37.1124 41.4688 37.0646 41.6038 36.9588C41.7388 36.853 41.8262 36.6979 41.8468 36.5276C41.8675 36.3574 41.8196 36.1859 41.7138 36.0509C41.608 35.9159 41.4529 35.8285 41.2827 35.8079C40.2905 35.6717 37.6254 34.4072 36.925 35.4771C36.5888 37.2342 36.5363 39.0338 36.7694 40.8075C35.2985 41.2426 33.8561 41.7689 32.4507 42.3832C31.867 42.675 31.1862 42.7723 31.0111 43.4726C30.836 44.173 31.5558 44.9511 32.1783 45.418C32.8008 45.8849 35.5438 48.0248 36.7889 48.9586C35.5501 50.601 34.4007 52.309 33.3455 54.075C33.2113 54.3363 33.1788 54.638 33.2543 54.9219C33.3298 55.2058 33.5078 55.4516 33.7541 55.6118C34.6555 55.9596 35.654 55.9596 36.5554 55.6118C37.7421 55.3978 40.8741 54.678 42.3915 54.5613C43.9478 57.6739 44.3369 61.5647 46.1267 60.3974L52.2352 56.0009L58.0713 58.0435C58.218 58.0992 58.3795 58.1026 58.5283 58.0529C58.6772 58.0033 58.8044 57.9038 58.8883 57.7712C59.9111 55.999 60.4292 53.9807 60.3863 51.935C60.3668 51.7886 60.2908 51.6557 60.1744 51.5647C60.058 51.4738 59.9105 51.4321 59.7638 51.4487Z" fill="#618883"/>
<path fill-rule="evenodd" clip-rule="evenodd" d="M35.835 27.1511C36.0026 27.115 36.1491 27.0137 36.2421 26.8696C36.3352 26.7255 36.3671 26.5503 36.331 26.3826C36.2949 26.215 36.1937 26.0685 36.0496 25.9755C35.9055 25.8824 35.7303 25.8505 35.5626 25.8866C31.5288 26.6215 27.6646 28.0921 24.1627 30.2248C24.0912 30.2478 24.0249 30.2846 23.9676 30.3332C23.9103 30.3818 23.8631 30.4413 23.8288 30.5081C23.7945 30.5749 23.7737 30.6479 23.7675 30.7228C23.7614 30.7977 23.7701 30.873 23.7931 30.9446C23.8161 31.0161 23.8529 31.0824 23.9015 31.1397C23.9502 31.197 24.0096 31.2441 24.0764 31.2784C24.1433 31.3128 24.2162 31.3336 24.2911 31.3397C24.366 31.3458 24.4413 31.3372 24.5129 31.3142C30.777 29.9913 32.878 28.0459 35.835 27.1511Z" fill="#618883"/>
<path fill-rule="evenodd" clip-rule="evenodd" d="M28.6557 36.567C30.1771 36.441 31.6616 36.032 33.0328 35.3608C33.9504 34.7862 34.9558 34.3656 36.0092 34.1158C36.1628 34.0892 36.302 34.0092 36.4023 33.8899C36.5026 33.7707 36.5576 33.6199 36.5576 33.4641C36.5576 33.3083 36.5026 33.1574 36.4023 33.0382C36.302 32.919 36.1628 32.839 36.0092 32.8124C35.1462 32.7396 34.2771 32.8186 33.4413 33.0458C32.298 33.3073 31.1884 33.6989 30.1342 34.213C30.6205 34.038 27.0021 35.5359 26.9243 35.6915C26.4963 36.7031 27.6052 36.7615 28.6557 36.567Z" fill="#618883"/>
</svg>
