<svg width="80" height="80" viewBox="0 0 80 80" fill="none" xmlns="http://www.w3.org/2000/svg">
<rect width="80" height="80" rx="40" fill="#E5F4F2"/>
<path fill-rule="evenodd" clip-rule="evenodd" d="M59.9165 54.7826C59.6364 54.6947 59.3469 54.6399 59.054 54.6195C59.2556 53.8592 59.2953 53.0651 59.1706 52.2885C59.0624 51.6158 58.808 50.975 58.4254 50.4111C58.0429 49.8473 57.5413 49.3742 56.9562 49.0251C56.321 48.644 55.6108 48.4049 54.8744 48.3244C54.1381 48.2439 53.393 48.324 52.6905 48.559C51.0112 49.055 49.4329 49.8441 48.0285 50.8899C47.0495 51.5892 46.2337 52.3351 45.5577 52.778C44.0892 53.7803 41.4319 55.3421 40.2431 56.0414C40.0867 56.1463 39.9386 56.2632 39.8002 56.391C38.8985 56.3314 38.0067 56.1671 37.1429 55.9015C35.8353 55.6661 34.5945 55.1491 33.5066 54.3864C33.5066 54.3864 33.5066 54.1999 33.5066 54.06C33.6563 53.7846 33.8361 53.5266 34.0427 53.2908C36.5136 50.447 38.9844 49.0951 39.8235 47.3702C40.149 46.6851 40.2901 45.927 40.2329 45.1707C40.1756 44.4144 39.9221 43.6861 39.4972 43.0579C39.0811 42.3886 38.4672 41.8654 37.7405 41.5605C37.0138 41.2556 36.2103 41.1843 35.4413 41.3563C32.7233 41.8711 30.1186 42.8656 27.7491 44.2933C25.4559 45.7074 23.0178 46.8718 20.4765 47.7664H19.9637H19.8238C19.0285 47.8234 18.2307 47.6957 17.4928 47.3935C16.3727 47.0457 15.2879 46.5931 14.2528 46.0415C14.161 45.9849 14.0589 45.9469 13.9524 45.9297C13.8458 45.9125 13.737 45.9165 13.632 45.9414C13.527 45.9663 13.428 46.0116 13.3405 46.0748C13.2531 46.138 13.1789 46.2177 13.1223 46.3096C13.0656 46.4014 13.0277 46.5035 13.0105 46.61C12.9933 46.7165 12.9973 46.8254 13.0222 46.9303C13.0471 47.0353 13.0924 47.1344 13.1556 47.2218C13.2187 47.3093 13.2985 47.3835 13.3903 47.4401C14.5482 48.1894 15.7734 48.8293 17.05 49.3515C17.9488 49.7009 18.9062 49.875 19.8704 49.8643H20.1735C20.81 49.7765 21.4352 49.6202 22.0382 49.3981C24.3959 48.5256 26.6798 47.4655 28.868 46.228C30.7375 45.1916 32.7363 44.4078 34.8119 43.897C36.0474 43.6406 37.1429 43.4774 37.6557 44.3399C37.8969 44.6733 38.0454 45.0646 38.0864 45.474C38.1273 45.8834 38.0592 46.2963 37.8888 46.6709C37.073 48.2559 34.6721 49.3981 32.3178 51.9855C30.5696 53.9202 30.7794 55.3421 31.6651 56.391C33.0192 57.5162 34.6145 58.3139 36.3271 58.722C37.4094 59.0667 38.5279 59.2857 39.6604 59.3747C41.2666 59.4906 42.8792 59.4906 44.4855 59.3747C46.0462 59.3093 47.6023 59.1615 49.1474 58.9318C51.898 58.5122 54.1357 57.9528 55.7441 57.7663C56.6997 57.544 57.6767 57.4267 58.6578 57.4166C58.9568 57.4592 59.237 57.5876 59.4645 57.7861C59.6921 57.9847 59.8572 58.245 59.9398 58.5355C60.2195 59.1416 59.9398 59.6544 59.3804 60.1439C58.206 61.2024 56.8875 62.0892 55.4643 62.7779C51.7992 64.636 47.7553 65.625 43.6463 65.6683C37.2895 65.8375 30.9467 64.9876 24.8587 63.1508C24.7286 63.1183 24.5925 63.1183 24.4624 63.1508L13.9265 64.969C13.8313 64.9839 13.7402 65.0177 13.6583 65.0683C13.5764 65.119 13.5055 65.1855 13.4497 65.2639C13.3938 65.3424 13.3543 65.4312 13.3333 65.5252C13.3122 65.6191 13.3102 65.7163 13.3273 65.8111C13.3444 65.9058 13.3802 65.9962 13.4328 66.0769C13.4853 66.1576 13.5534 66.227 13.6331 66.281C13.7128 66.3351 13.8025 66.3726 13.8969 66.3914C13.9913 66.4103 14.0885 66.4101 14.1829 66.3909L24.5091 64.8757C30.7023 66.9411 37.1877 67.9958 43.7163 67.9992C48.2433 68.0128 52.7116 66.9755 56.7697 64.969C58.7854 64.023 60.5861 62.6744 62.061 61.0063C62.4558 60.4738 62.7044 59.8472 62.7821 59.1889C62.8598 58.5305 62.7639 57.8633 62.5039 57.2535C62.28 56.6772 61.9322 56.1572 61.485 55.7302C61.0379 55.3033 60.5025 54.9798 59.9165 54.7826ZM55.4643 54.9225C53.8327 55.109 51.5716 55.6684 48.7745 56.088C47.3388 56.3178 45.8913 56.4657 44.4389 56.5309H43.3666C44.602 55.9947 45.954 55.412 46.8864 54.9458C47.8188 54.4796 48.3782 54.0834 49.2173 53.4773C50.2958 52.8064 51.4171 52.2068 52.5739 51.6825C53.0384 51.3628 53.5712 51.1562 54.1297 51.0793C54.6883 51.0024 55.2571 51.0573 55.7907 51.2396C56.1367 51.3987 56.4459 51.628 56.6987 51.9129C56.9515 52.1978 57.1423 52.5321 57.2592 52.8946C57.4112 53.5069 57.4112 54.147 57.2592 54.7593L55.4643 54.9225Z" fill="#618883"/>
<path fill-rule="evenodd" clip-rule="evenodd" d="M62.2235 16.3223C60.0196 14.5633 57.4653 13.2957 54.7316 12.6042C51.9979 11.9128 49.1481 11.8135 46.3729 12.313C43.8679 12.7784 41.5454 13.9421 39.673 15.6701C37.8007 17.3981 36.4547 19.62 35.7903 22.0798C34.3552 26.8363 34.8405 31.9657 37.1423 36.3686C38.379 38.3047 40.0349 39.9383 41.9876 41.1487C43.9403 42.359 46.14 43.1153 48.4242 43.3615C52.9062 44.1895 57.5341 43.2271 61.3144 40.6809C61.4038 40.6202 61.4801 40.5423 61.5391 40.4518C61.5981 40.3612 61.6385 40.2599 61.6581 40.1537C61.6776 40.0474 61.6758 39.9383 61.6528 39.8328C61.6298 39.7272 61.5861 39.6273 61.5242 39.5387C61.3942 39.367 61.203 39.2518 60.9904 39.2171C60.7778 39.1824 60.56 39.2308 60.382 39.3523C56.9111 41.5243 52.7311 42.26 48.7272 41.4035C46.8024 41.1566 44.9559 40.4874 43.3199 39.4437C41.6839 38.4 40.2987 37.0077 39.2635 35.3663C37.3942 31.5217 37.0851 27.1029 38.401 23.0355C38.9066 21.0281 39.9728 19.2061 41.4752 17.7821C42.9776 16.3581 44.8542 15.3909 46.8857 14.9936C49.3001 14.4809 51.796 14.488 54.2074 15.0145C56.6189 15.541 58.8906 16.5748 60.8715 18.0472C63.9018 20.6113 65.7899 24.8769 65.0906 31.5668C64.9836 32.5769 64.7566 33.5707 64.4146 34.5271C64.0807 35.4765 63.6095 36.3717 63.016 37.1845C62.9035 37.3366 62.8551 37.5268 62.8812 37.7142C62.9074 37.9016 63.006 38.0713 63.1559 38.1868C63.23 38.2456 63.3153 38.2887 63.4066 38.3135C63.4979 38.3384 63.5933 38.3445 63.687 38.3314C63.7807 38.3183 63.8708 38.2864 63.9518 38.2375C64.0328 38.1886 64.103 38.1237 64.1582 38.0469C64.8677 37.149 65.441 36.1515 65.8598 35.0866C66.2782 34.0216 66.5677 32.9104 66.7223 31.7766C67.6547 24.2476 65.5335 19.3525 62.2235 16.3223Z" fill="#618883"/>
<path fill-rule="evenodd" clip-rule="evenodd" d="M51.9677 27.814V26.6485C51.7579 24.6206 51.2917 21.9866 51.2218 21.3339C51.2218 21.1423 51.1457 20.9585 51.0102 20.823C50.8747 20.6875 50.6909 20.6113 50.4992 20.6113C50.3076 20.6113 50.1238 20.6875 49.9883 20.823C49.8527 20.9585 49.7766 21.1423 49.7766 21.3339C49.7766 21.9633 49.3803 24.6672 49.2871 26.7418V29.0727C49.2967 29.4064 49.4273 29.7252 49.6546 29.9697C49.882 30.2141 50.1904 30.3676 50.5225 30.4014C50.5225 30.4014 51.688 30.4014 53.2731 30.4014C54.8581 30.4014 56.0236 30.4014 57.3989 30.2615C57.6136 30.2619 57.8203 30.1799 57.9764 30.0325C58.1325 29.885 58.2261 29.6834 58.238 29.469C58.2411 29.3619 58.2231 29.2552 58.1849 29.155C58.1468 29.0548 58.0893 28.9631 58.0157 28.8852C57.9421 28.8073 57.8538 28.7446 57.756 28.7008C57.6582 28.657 57.5527 28.6329 57.4455 28.6299L51.9677 27.814Z" fill="#618883"/>
</svg>
