<svg width="53" height="50" viewBox="0 0 53 50" fill="none" xmlns="http://www.w3.org/2000/svg">
<path fill-rule="evenodd" clip-rule="evenodd" d="M17.5792 29.5621C18.1898 29.9921 18.7134 30.537 19.1215 31.1673C19.8626 32.2239 20.4435 33.4227 21.1245 34.459C21.2391 34.6331 21.4155 34.7557 21.617 34.8011C21.8185 34.8465 22.0296 34.8113 22.2061 34.7028C22.3797 34.5935 22.5042 34.4195 22.5529 34.2182C22.6015 34.0169 22.5705 33.8043 22.4665 33.6259C21.7454 32.3255 21.1645 30.8015 20.3233 29.5621C19.9173 28.9262 19.4174 28.3574 18.8411 27.8756C18.3362 27.3859 17.7007 27.0575 17.0135 26.9311C16.3263 26.8047 15.6175 26.8858 14.9754 27.1644C13.4657 28.0622 12.2421 29.3811 11.4501 30.9641C10.669 32.3864 9.84774 33.8494 9.06658 35.353C8.28542 36.8566 7.54432 38.2383 6.68305 39.6403C5.56929 41.4895 4.22262 43.1835 2.6771 44.6795C2.55457 44.8114 2.48633 44.9858 2.48633 45.1671C2.48633 45.3484 2.55457 45.5228 2.6771 45.6548C2.80475 45.7838 2.97761 45.8563 3.15782 45.8563C3.33802 45.8563 3.51088 45.7838 3.63853 45.6548C5.45374 44.2469 7.08284 42.6079 8.48572 40.7782C9.5154 39.4302 10.4716 38.0261 11.35 36.5721C12.2313 35.1295 13.0124 33.6259 13.8136 32.2035C14.2275 31.018 14.9635 29.9754 15.9368 29.1963C16.2161 29.0895 16.5199 29.0672 16.8115 29.1321C17.103 29.1971 17.3697 29.3464 17.5792 29.5621Z" fill="#618883"/>
<path fill-rule="evenodd" clip-rule="evenodd" d="M32.9621 17.9195C32.4858 18.1428 32.0412 18.4298 31.6401 18.7729C29.4161 21.1894 27.5597 23.9287 26.132 26.9006C26.132 27.1037 26.0318 27.3273 25.9717 27.5304C25.9522 27.6105 25.9522 27.6942 25.9717 27.7743C25.3884 30.2368 24.6729 32.6651 23.8286 35.0485C23.182 36.6537 22.3838 38.1915 21.445 39.6406C20.0314 41.8618 18.4933 43.9988 16.8382 46.0411C16.7727 46.1038 16.7205 46.1794 16.6849 46.2633C16.6492 46.3471 16.6309 46.4375 16.6309 46.5288C16.6309 46.6201 16.6492 46.7105 16.6849 46.7943C16.7205 46.8782 16.7727 46.9538 16.8382 47.0165C16.9682 47.1408 17.1402 47.21 17.3189 47.21C17.4976 47.21 17.6695 47.1408 17.7996 47.0165C19.5858 45.0084 21.2577 42.8985 22.807 40.6972C23.8779 39.203 24.81 37.6113 25.5912 35.9426C26.377 34.105 27.046 32.2182 27.5941 30.2938C28.0075 30.7346 28.4715 31.1235 28.9762 31.452C29.5032 31.7759 30.0939 31.9783 30.7065 32.045C31.3191 32.1117 31.9387 32.0411 32.5215 31.8381C32.8987 31.6973 33.2558 31.506 33.583 31.2692C33.9108 31.0312 34.2129 30.7587 34.4844 30.4564L35.3056 30.9441C36.4039 31.3996 37.5848 31.6142 38.7707 31.5739C39.6386 31.5069 40.4871 31.2796 41.2744 30.9034C42.2359 33.3214 43.2774 35.7597 44.2989 38.1167C45.6106 41.084 47.2791 43.8754 49.2663 46.4272C49.4016 46.5562 49.5777 46.6321 49.7631 46.6413C49.9485 46.6506 50.1311 46.5925 50.2781 46.4776C50.4252 46.3626 50.5271 46.1983 50.5656 46.0141C50.604 45.8299 50.5766 45.6378 50.4881 45.4722C48.6876 42.9552 47.1946 40.2261 46.0415 37.3446C44.1988 32.976 42.8167 28.3432 41.0341 23.9746C40.5934 22.9383 40.1327 21.9427 39.612 20.9064C38.6324 19.6767 37.4781 18.6016 36.1869 17.7163C35.8896 17.4945 35.5341 17.3672 35.1654 17.3506H34.8449C34.2038 17.4907 33.5743 17.6809 32.9621 17.9195ZM38.7106 29.542C37.84 29.4338 37.001 29.1432 36.247 28.6886C35.8577 28.4183 35.4833 28.1266 35.1253 27.8149C34.9217 27.6984 34.7069 27.6031 34.4844 27.5304C34.2581 27.4661 34.0194 27.4623 33.7912 27.5192C33.5631 27.5762 33.3534 27.6921 33.1824 27.8556C33.0033 28.0337 32.836 28.2238 32.6817 28.4245C32.5005 28.6591 32.292 28.8706 32.0608 29.0544C31.8903 29.2305 31.6857 29.3688 31.4599 29.4608C31.1384 29.5981 30.7896 29.6568 30.4417 29.6321C30.0937 29.6074 29.7564 29.5 29.4569 29.3185C29.0287 29.1002 28.6256 28.8344 28.2551 28.5261C28.2551 28.2823 28.4154 28.0181 28.5155 27.754C30.2625 24.9173 32.348 22.3103 34.7247 19.9921C34.7247 20.3375 38.3501 24.0559 38.7307 24.9499C39.3916 26.3926 39.9725 27.8759 40.5534 29.3592C39.9558 29.5363 39.3308 29.5983 38.7106 29.542Z" fill="#618883"/>
<path fill-rule="evenodd" clip-rule="evenodd" d="M32.2603 13.3674C32.3604 13.916 32.4606 14.7085 32.5808 15.3993C33.0815 16.3137 34.3434 17.0452 34.7239 15.0336V14.7694C35.8131 14.7119 36.8936 14.5417 37.9487 14.2615C38.498 14.1103 39.0339 13.9132 39.5511 13.6722C40.0601 13.4154 40.555 13.1305 41.0333 12.8188C42.1348 12.0549 43.1433 11.1614 44.0378 10.157C46.5415 7.88127 46.3612 8.8769 40.9131 5.93063C40.0122 5.3976 39.0828 4.91597 38.129 4.48798C36.4559 3.75348 34.6894 3.26101 32.8812 3.025C32.7957 3.00063 32.7062 2.99398 32.6181 3.00547C32.53 3.01696 32.4451 3.04634 32.3685 3.09185C32.2918 3.13737 32.225 3.19809 32.172 3.2704C32.119 3.3427 32.0809 3.42509 32.06 3.51266C32.0266 3.65049 32.0401 3.79572 32.0983 3.9248C32.1564 4.05388 32.2559 4.15925 32.3805 4.22383C32.2234 4.26117 32.0839 4.3523 31.9854 4.48185C31.8869 4.61139 31.8354 4.77144 31.8397 4.935C31.8397 6.72308 31.6995 8.47052 31.8397 10.2586C31.9198 11.2949 32.1 12.3311 32.2603 13.3674ZM36.5266 6.56052C37.4233 7.09525 38.3533 7.57036 39.3107 7.98286C40.4308 8.45911 41.5904 8.83311 42.7759 9.10041C42.2639 9.4258 41.7358 9.72421 41.1935 9.99445C40.5926 10.3196 39.9517 10.5431 39.3308 10.8275C38.7099 11.112 38.0889 11.3761 37.488 11.6809C36.5533 12.155 35.6119 12.6021 34.6638 13.022C34.647 12.4239 34.6002 11.8271 34.5236 11.2339C34.4658 10.5509 34.3655 9.8722 34.2232 9.20201C33.9228 7.67807 33.5021 6.23542 33.1616 4.73181V4.56925C34.3033 5.19915 35.4049 5.91031 36.5266 6.56052Z" fill="#618883"/>
</svg>
