<svg width="183" height="30" viewBox="0 0 183 30" fill="none" xmlns="http://www.w3.org/2000/svg">
<path fill-rule="evenodd" clip-rule="evenodd" d="M10.0419 17.9659C10.4482 18.252 10.7965 18.6146 11.0681 19.0339C11.5612 19.7369 11.9476 20.5345 12.4007 21.224C12.477 21.3399 12.5944 21.4214 12.7284 21.4516C12.8625 21.4819 13.0029 21.4584 13.1204 21.3862C13.2359 21.3135 13.3187 21.1978 13.3511 21.0638C13.3835 20.9299 13.3628 20.7884 13.2936 20.6697C12.8139 19.8045 12.4274 18.7905 11.8677 17.9659C11.5975 17.5428 11.2649 17.1644 10.8815 16.8438C10.5456 16.518 10.1228 16.2995 9.66552 16.2154C9.20827 16.1313 8.73673 16.1852 8.30946 16.3706C7.30504 16.968 6.49093 17.8455 5.96398 18.8987C5.44424 19.845 4.89785 20.8184 4.37811 21.8188C3.85838 22.8192 3.36529 23.7385 2.79225 24.6714C2.05122 25.9017 1.15523 27.0288 0.126929 28.0241C0.0454025 28.1119 0 28.2279 0 28.3486C0 28.4692 0.0454025 28.5852 0.126929 28.673C0.211858 28.7589 0.326869 28.8071 0.446768 28.8071C0.566667 28.8071 0.681678 28.7589 0.766606 28.673C1.97434 27.7363 3.05825 26.6458 3.99164 25.4284C4.67673 24.5316 5.31292 23.5974 5.89735 22.63C6.48372 21.6701 7.00345 20.6697 7.53652 19.7234C7.81186 18.9346 8.3016 18.2409 8.94914 17.7225C9.13496 17.6515 9.33712 17.6366 9.53109 17.6798C9.72507 17.723 9.90252 17.8224 10.0419 17.9659Z" fill="#2C9896"/>
<path fill-rule="evenodd" clip-rule="evenodd" d="M20.276 10.2194C19.9591 10.3679 19.6633 10.5589 19.3965 10.7872C17.9167 12.3949 16.6815 14.2175 15.7316 16.1948C15.7316 16.33 15.665 16.4787 15.625 16.6139C15.612 16.6672 15.612 16.7229 15.625 16.7761C15.2369 18.4145 14.7609 20.0302 14.1991 21.616C13.7689 22.684 13.2378 23.7072 12.6132 24.6713C11.6727 26.1491 10.6493 27.571 9.54809 28.9298C9.50453 28.9715 9.46983 29.0218 9.44611 29.0776C9.42239 29.1334 9.41016 29.1935 9.41016 29.2543C9.41016 29.315 9.42239 29.3752 9.44611 29.431C9.46983 29.4867 9.50453 29.537 9.54809 29.5787C9.63463 29.6614 9.74904 29.7075 9.86793 29.7075C9.98682 29.7075 10.1012 29.6614 10.1878 29.5787C11.3762 28.2427 12.4886 26.8389 13.5194 25.3743C14.2319 24.3801 14.852 23.3211 15.3718 22.2108C15.8947 20.9882 16.3398 19.7328 16.7045 18.4525C16.9795 18.7458 17.2882 19.0045 17.624 19.2231C17.9746 19.4385 18.3677 19.5732 18.7753 19.6176C19.1829 19.662 19.5951 19.615 19.9828 19.48C20.2338 19.3863 20.4714 19.259 20.6891 19.1014C20.9072 18.9431 21.1082 18.7618 21.2888 18.5607L21.8352 18.8851C22.566 19.1882 23.3517 19.331 24.1407 19.3042C24.7181 19.2596 25.2827 19.1084 25.8065 18.8581C26.4462 20.4669 27.1392 22.0891 27.8189 23.6574C28.6916 25.6316 29.8017 27.4889 31.1239 29.1867C31.2138 29.2725 31.331 29.323 31.4544 29.3291C31.5777 29.3353 31.6992 29.2967 31.7971 29.2202C31.8949 29.1437 31.9627 29.0344 31.9883 28.9118C32.0139 28.7893 31.9956 28.6614 31.9368 28.5513C30.7389 26.8766 29.7454 25.0608 28.9783 23.1436C27.7522 20.237 26.8327 17.1547 25.6466 14.2481C25.3534 13.5586 25.0469 12.8961 24.7004 12.2067C24.0487 11.3885 23.2807 10.6732 22.4216 10.0842C22.2238 9.93654 21.9872 9.85184 21.7419 9.84082H21.5287C21.1021 9.93405 20.6833 10.0606 20.276 10.2194ZM24.1007 17.9523C23.5215 17.8803 22.9633 17.6869 22.4616 17.3845C22.2026 17.2046 21.9534 17.0106 21.7153 16.8032C21.5798 16.7256 21.4369 16.6622 21.2888 16.6139C21.1383 16.5711 20.9794 16.5685 20.8277 16.6064C20.6759 16.6443 20.5363 16.7214 20.4226 16.8302C20.3034 16.9488 20.1921 17.0752 20.0894 17.2087C19.9689 17.3648 19.8302 17.5055 19.6763 17.6278C19.5629 17.745 19.4267 17.837 19.2765 17.8982C19.0626 17.9896 18.8306 18.0286 18.5991 18.0122C18.3675 17.9958 18.1431 17.9243 17.9439 17.8036C17.6589 17.6583 17.3908 17.4815 17.1443 17.2763C17.1443 17.1141 17.2509 16.9384 17.3175 16.7626C18.4798 14.8753 19.8674 13.1407 21.4487 11.5983C21.4487 11.8281 23.8609 14.3021 24.1141 14.897C24.5538 15.8568 24.9403 16.8437 25.3268 17.8306C24.9292 17.9485 24.5133 17.9897 24.1007 17.9523Z" fill="#2C9896"/>
<path fill-rule="evenodd" clip-rule="evenodd" d="M19.8096 7.19084C19.8762 7.55585 19.9429 8.0831 20.0228 8.54275C20.356 9.15111 21.1956 9.6378 21.4488 8.29941V8.12366C22.1734 8.08536 22.8924 7.97212 23.5944 7.78568C23.9598 7.68511 24.3164 7.55398 24.6605 7.39362C24.9992 7.22275 25.3284 7.0332 25.6467 6.82582C26.3795 6.31758 27.0505 5.72311 27.6456 5.05482C29.3115 3.54067 29.1915 4.20311 25.5667 2.24284C24.9673 1.88819 24.3489 1.56774 23.7143 1.28298C22.6011 0.794287 21.4258 0.466627 20.2227 0.309605C20.1658 0.293387 20.1063 0.288966 20.0477 0.296608C19.9891 0.30425 19.9326 0.323797 19.8816 0.354082C19.8306 0.384367 19.7861 0.424769 19.7509 0.472874C19.7156 0.520979 19.6902 0.5758 19.6763 0.634064C19.6541 0.725769 19.6631 0.822394 19.7018 0.908277C19.7405 0.99416 19.8067 1.06427 19.8896 1.10723C19.7851 1.13208 19.6922 1.19271 19.6267 1.2789C19.5612 1.3651 19.5269 1.47158 19.5297 1.5804C19.5297 2.77008 19.4365 3.93273 19.5297 5.12241C19.583 5.81189 19.703 6.50136 19.8096 7.19084ZM22.6482 2.66193C23.2448 3.01771 23.8636 3.33382 24.5006 3.60827C25.2458 3.92514 26.0173 4.17398 26.8061 4.35182C26.4654 4.56832 26.114 4.76686 25.7533 4.94666C25.3535 5.16297 24.927 5.31168 24.5139 5.50095C24.1008 5.69021 23.6876 5.86596 23.2878 6.06875C22.6659 6.3842 22.0396 6.68162 21.4088 6.96101C21.3976 6.5631 21.3664 6.16603 21.3155 5.77133C21.277 5.31687 21.2103 4.86533 21.1156 4.41942C20.9157 3.40548 20.6358 2.44563 20.4093 1.44521V1.33706C21.1689 1.75615 21.9019 2.22932 22.6482 2.66193Z" fill="#2C9896"/>
<path d="M44.1124 24.5H41.1304V9.044H38.2324V7.721H46.9474V9.044H44.1124V24.5ZM55.9168 24.5H53.7538L53.4388 23.366C52.9348 24.248 52.0738 24.857 50.5198 24.857C48.1258 24.857 46.9708 23.45 46.9708 21.224V11.69L49.8898 10.766V20.972C49.8898 22.757 50.5198 23.24 51.5698 23.24C52.3048 23.24 52.7248 23.009 52.9978 22.148V11.69L55.9168 10.766V24.5ZM75.3823 24.5H72.4633V13.685L69.0823 24.08L65.3653 13.496V24.5H63.6643V7.721H66.0583L69.7123 18.641L73.2823 7.721H75.3823V24.5ZM80.4204 15.722H84.5994C84.5784 13.937 84.0534 12.257 82.6674 12.257C81.2814 12.257 80.5254 13.895 80.4204 15.722ZM84.9564 21.392L86.2164 22.001C85.3974 23.744 84.0954 24.857 82.1634 24.857C79.0764 24.857 77.1234 21.98 77.1234 18.242C77.1234 14.189 79.4334 10.703 82.7934 10.703C85.6284 10.703 87.1614 13.202 87.1614 17.381H80.2314V18.011C80.2314 20.216 80.6304 23.282 82.7934 23.282C83.7594 23.282 84.5154 22.631 84.9564 21.392ZM86.1611 28.091L85.5311 26.726C88.3031 26.474 89.2481 25.949 89.2481 23.912V11.69L92.1671 10.766V23.24C92.1671 26.033 90.9911 27.566 86.1611 28.091ZM90.7601 9.632C89.8151 9.632 89.1011 8.918 89.1011 7.994C89.1011 7.049 89.8151 6.356 90.7601 6.356C91.6631 6.356 92.3981 7.049 92.3981 7.994C92.3981 8.918 91.6631 9.632 90.7601 9.632ZM99.3159 23.345C100.723 23.345 101.185 21.875 101.185 18.956C101.185 14.672 100.219 12.299 98.6019 12.299C97.4259 12.299 96.8589 13.538 96.8589 17.087C96.8589 21.203 97.6359 23.345 99.3159 23.345ZM98.7489 24.857C95.3259 24.857 93.8979 22.463 93.8979 18.074C93.8979 13.811 95.2419 10.703 99.1689 10.703C102.571 10.703 104.041 12.992 104.041 17.423C104.041 22.82 101.92 24.857 98.7489 24.857ZM108.767 24.5H105.827V11.69L108.767 10.766V12.509C109.061 11.501 109.859 10.703 110.909 10.703C111.518 10.703 112.043 10.997 112.61 11.543L111.224 13.391C111.056 13.286 110.762 13.16 110.363 13.16C109.67 13.16 109.145 13.559 108.767 14.882V24.5ZM122.67 16.31H123.678C125.61 16.31 125.757 14.273 125.757 12.782C125.757 11.102 125.568 9.044 123.363 9.044H122.67V16.31ZM122.67 24.5H119.73V7.721H124.791C127.731 7.721 128.697 9.989 128.697 12.53C128.697 16.058 126.87 17.633 123.363 17.633H122.67V24.5ZM135.049 21.938V17.192C134.377 17.591 133.117 17.927 132.508 18.746C132.067 19.355 131.92 20.363 131.92 21.245C131.92 22.673 132.34 23.429 133.285 23.429C134.293 23.429 134.86 22.652 135.049 21.938ZM138.766 24.5H136.414C136.015 24.185 135.721 23.786 135.532 23.156C135.049 23.996 134.293 24.857 132.529 24.857C130.177 24.857 128.98 23.324 128.98 21.287C128.98 19.796 129.631 18.515 130.744 17.738C132.151 16.751 133.852 16.898 135.049 15.89V14.588C135.049 12.845 134.398 12.32 133.222 12.32C132.13 12.32 131.668 12.803 131.038 13.874L129.589 13.16C130.513 11.417 131.941 10.703 133.831 10.703C136.687 10.703 138.031 12.299 138.031 14.399V22.442C138.031 23.03 138.262 23.723 138.766 24.5ZM142.89 24.5H139.95V11.69L142.89 10.766V12.509C143.184 11.501 143.982 10.703 145.032 10.703C145.641 10.703 146.166 10.997 146.733 11.543L145.347 13.391C145.179 13.286 144.885 13.16 144.486 13.16C143.793 13.16 143.268 13.559 142.89 14.882V24.5ZM154.764 21.392L156.003 22.001C155.058 23.891 153.756 24.857 151.824 24.857C148.716 24.857 146.847 21.938 146.847 17.78C146.847 13.16 148.905 10.703 152.328 10.703C154.134 10.703 155.142 11.606 155.709 13.223L154.239 13.769C153.861 12.824 153.315 12.173 152.538 12.173C150.774 12.173 149.871 14.042 149.871 17.675C149.871 20.951 150.879 23.282 152.727 23.282C153.609 23.282 154.176 22.589 154.764 21.392ZM160.346 15.722H164.525C164.504 13.937 163.979 12.257 162.593 12.257C161.207 12.257 160.451 13.895 160.346 15.722ZM164.882 21.392L166.142 22.001C165.323 23.744 164.021 24.857 162.089 24.857C159.002 24.857 157.049 21.98 157.049 18.242C157.049 14.189 159.359 10.703 162.719 10.703C165.554 10.703 167.087 13.202 167.087 17.381H160.157V18.011C160.157 20.216 160.556 23.282 162.719 23.282C163.685 23.282 164.441 22.631 164.882 21.392ZM171.652 24.5H168.691V8.267L171.652 7.364V24.5ZM179.211 21.938V17.192C178.539 17.591 177.279 17.927 176.67 18.746C176.229 19.355 176.082 20.363 176.082 21.245C176.082 22.673 176.502 23.429 177.447 23.429C178.455 23.429 179.022 22.652 179.211 21.938ZM182.928 24.5H180.576C180.177 24.185 179.883 23.786 179.694 23.156C179.211 23.996 178.455 24.857 176.691 24.857C174.339 24.857 173.142 23.324 173.142 21.287C173.142 19.796 173.793 18.515 174.906 17.738C176.313 16.751 178.014 16.898 179.211 15.89V14.588C179.211 12.845 178.56 12.32 177.384 12.32C176.292 12.32 175.83 12.803 175.2 13.874L173.751 13.16C174.675 11.417 176.103 10.703 177.993 10.703C180.849 10.703 182.193 12.299 182.193 14.399V22.442C182.193 23.03 182.424 23.723 182.928 24.5Z" fill="#2C9896"/>
</svg>
