<svg width="80" height="80" viewBox="0 0 80 80" fill="none" xmlns="http://www.w3.org/2000/svg">
<rect width="80" height="80" rx="40" fill="#E5F4F2"/>
<path d="M30.1144 21.4807C31.1877 22.484 32.3311 23.4174 33.4277 24.374C34.5244 25.3307 35.621 26.0074 36.7177 26.9174C37.4069 27.4759 38.0541 28.0842 38.6544 28.7374C38.7144 28.8251 38.792 28.8994 38.8822 28.9557C38.9725 29.012 39.0734 29.0489 39.1786 29.0643C39.2838 29.0796 39.3911 29.073 39.4936 29.0449C39.5961 29.0167 39.6917 28.9676 39.7744 28.9007C39.9599 28.7892 40.0937 28.6087 40.1462 28.3986C40.1987 28.1886 40.1657 27.9664 40.0544 27.7807C39.5114 26.9552 38.9028 26.1749 38.2344 25.4474C37.2777 24.3507 36.2044 23.324 35.271 22.3674C34.3377 21.4107 33.0544 20.4074 31.8411 19.4974C30.6277 18.5874 28.9011 17.3274 27.4077 16.2774C28.9154 15.2616 30.6591 14.6509 32.4711 14.5041C33.6992 14.4361 34.9309 14.5302 36.1344 14.7841C38.029 15.1368 39.8821 15.6841 41.6643 16.4174C43.185 16.9252 44.6733 17.5252 46.121 18.2141L46.5177 18.4241C49.5743 19.6374 49.971 19.1007 48.011 16.9774L47.0543 16.3707C45.611 15.5149 44.1234 14.736 42.5977 14.0374C41.2783 13.426 39.913 12.9189 38.5144 12.5208C37.0458 12.1337 35.529 11.9608 34.011 12.0074C30.8815 12.4792 27.8807 13.5827 25.1911 15.2507C25.0888 15.4961 25.0699 15.7683 25.1374 16.0255C25.2048 16.2826 25.3548 16.5105 25.5644 16.6741C27.0811 18.3074 28.5277 19.9641 30.1144 21.4807Z" fill="#618883"/>
<path d="M66.841 40.0078C66.3885 37.6069 65.5617 35.2921 64.391 33.1478C64.0924 32.612 63.7571 32.0974 63.3877 31.6078C60.6343 29.9045 59.981 30.2778 61.8943 33.2878L62.431 34.2211C63.2942 36.2348 63.8904 38.3528 64.2043 40.5211C64.3677 41.6178 64.4843 42.7144 64.5543 43.7878C64.6237 44.8755 64.6237 45.9666 64.5543 47.0544C64.5412 48.1323 64.4555 49.208 64.2976 50.2744V50.6011C63.1777 49.2711 61.9643 47.9644 60.7977 46.7511C59.631 45.5377 58.791 44.8377 57.741 43.9278L55.6177 42.2011C55.3144 41.9444 54.9877 41.7111 54.661 41.4778C52.3277 40.5211 51.3244 40.6378 53.1677 43.1578C53.4244 43.4378 53.7044 43.6944 53.9844 43.9744C55.291 45.2577 56.5977 46.5877 57.9977 47.7777C59.8177 49.3411 61.7543 50.7411 63.5743 52.2577C64.4143 52.9344 65.1376 53.1444 65.4643 51.9777C65.6808 51.5748 65.8605 51.153 66.001 50.7177C66.3372 49.6189 66.5869 48.4955 66.7476 47.3577C66.9949 46.1671 67.1355 44.9567 67.1676 43.7411C67.1801 42.489 67.0707 41.2387 66.841 40.0078Z" fill="#618883"/>
<path d="M62.5931 26.7067C62.7522 26.5452 62.8725 26.3495 62.9448 26.1346C63.0171 25.9196 63.0395 25.691 63.0102 25.4661C62.981 25.2412 62.9009 25.026 62.7761 24.8366C62.6512 24.6473 62.4849 24.4889 62.2898 24.3734C61.5325 23.3158 60.7144 22.3029 59.8398 21.3401C59.4664 20.9434 59.0698 20.5701 58.6731 20.1968L57.4364 19.1701C56.4098 18.4234 55.3364 17.7934 54.3331 17.0468C54.2679 16.9797 54.1899 16.9265 54.1037 16.8901C54.0176 16.8537 53.925 16.835 53.8315 16.835C53.7379 16.835 53.6453 16.8537 53.5592 16.8901C53.473 16.9265 53.395 16.9797 53.3298 17.0468C49.8065 20.4534 55.9198 14.1768 41.8032 28.1067C39.3765 30.5178 36.9576 32.9289 34.5465 35.34L19.8932 50.9966C18.6566 52.28 16.4166 54.0066 14.8999 55.8033C14.1115 56.6764 13.5082 57.7004 13.1266 58.8133C12.8801 59.8085 12.9959 60.859 13.4533 61.7766C14.3211 63.4248 15.5887 64.8287 17.1399 65.8599C19.7999 67.7266 23.1132 68.5666 24.9799 67.5866C27.6107 66.1256 29.9771 64.2326 31.9799 61.9866C35.0365 58.7666 37.6732 54.9866 40.2632 51.9066C41.6865 50.18 43.1332 48.4766 44.6031 46.82C49.0131 41.85 52.5831 38.5834 62.5931 26.7067ZM45.0231 43.2267C44.7592 42.7983 44.4709 42.3854 44.1598 41.99C43.9521 41.7473 43.7259 41.5211 43.4832 41.3133C43.2394 41.1056 42.9734 40.9256 42.6898 40.7767C42.0162 40.4528 41.3225 40.1722 40.6132 39.9367C40.4646 39.8253 40.278 39.7775 40.0942 39.8037C39.9104 39.83 39.7446 39.9282 39.6332 40.0767C39.5205 40.2289 39.472 40.4193 39.4982 40.6069C39.5244 40.7946 39.6231 40.9644 39.7732 41.08C40.2445 41.7578 40.7589 42.4047 41.3132 43.0167C41.652 43.3369 42.019 43.6258 42.4098 43.88L43.6932 44.65L43.0398 45.35C41.8265 46.68 40.7065 48.01 39.4698 49.3633L38.6298 48.4066C38.3889 48.1339 38.1233 47.884 37.8365 47.66C37.5726 47.4223 37.2918 47.204 36.9965 47.0067C36.2498 46.54 35.5032 46.2367 34.6632 45.7933C34.5958 45.7305 34.5167 45.6816 34.4303 45.6494C34.344 45.6171 34.2522 45.6022 34.1601 45.6054C34.068 45.6087 33.9775 45.6301 33.8937 45.6683C33.8098 45.7065 33.7343 45.7609 33.6715 45.8283C33.6087 45.8957 33.5598 45.9749 33.5276 46.0612C33.4953 46.1475 33.4804 46.2393 33.4836 46.3314C33.4869 46.4235 33.5083 46.514 33.5465 46.5979C33.5847 46.6817 33.6391 46.7572 33.7065 46.82C34.1581 47.5852 34.6732 48.3111 35.2465 48.99C35.4879 49.2623 35.7534 49.5122 36.0399 49.7366C36.3241 49.9729 36.6286 50.1837 36.9498 50.3666L37.9998 50.9733C36.9032 52.2566 35.6665 53.6333 34.6165 55.0566C34.4065 54.7533 34.1965 54.4733 33.9399 54.17C33.7575 53.9565 33.5627 53.7539 33.3565 53.5633C33.1387 53.3789 32.9044 53.2149 32.6565 53.0733C32.0499 52.7 31.4432 52.5133 30.8132 52.1866C30.748 52.1196 30.67 52.0663 30.5838 52.0299C30.4977 51.9936 30.4051 51.9748 30.3115 51.9748C30.218 51.9748 30.1254 51.9936 30.0393 52.0299C29.9531 52.0663 29.8751 52.1196 29.8099 52.1866C29.6801 52.3214 29.6076 52.5012 29.6076 52.6883C29.6076 52.8754 29.6801 53.0552 29.8099 53.19C30.1419 53.8136 30.5161 54.4139 30.9299 54.9866C31.1158 55.2194 31.3271 55.4307 31.5599 55.6166C31.786 55.8011 32.028 55.965 32.2832 56.1066L33.2632 56.62C32.2365 57.8333 31.1865 58.9533 30.0899 60.1666L29.7165 60.5166L29.2499 59.8633C29.0423 59.6132 28.8161 59.3792 28.5732 59.1633C28.3593 58.9738 28.1244 58.8095 27.8732 58.6733C27.1968 58.3183 26.4948 58.0141 25.7732 57.7633C25.6216 57.6519 25.432 57.6053 25.246 57.6337C25.06 57.6622 24.893 57.7633 24.7816 57.9149C24.6702 58.0666 24.6236 58.2562 24.652 58.4422C24.6805 58.6282 24.7816 58.7952 24.9332 58.9066C25.3999 59.5133 25.7499 60.0966 26.2632 60.6799C26.4558 60.8995 26.6666 61.1024 26.8932 61.2866C27.1266 61.4861 27.3764 61.6656 27.6399 61.8233L28.1532 62.1499C26.807 63.3476 25.318 64.3743 23.7199 65.2066C23.1456 65.4057 22.5209 65.4057 21.9466 65.2066C20.7733 64.8841 19.6671 64.3547 18.6799 63.6433C17.6747 62.9386 16.8184 62.0427 16.1599 61.0066C15.9883 60.7923 15.8625 60.545 15.7902 60.2802C15.718 60.0153 15.7009 59.7384 15.7399 59.4666C16.1379 58.4471 16.7599 57.5301 17.5599 56.7833C19.0533 55.36 20.7332 54.0066 21.7832 52.8166C22.8332 51.6266 23.7666 50.7166 24.7232 49.6433C28.5265 45.42 32.1899 41.01 36.0632 36.8334C38.9565 33.6834 41.8965 30.6034 44.8831 27.5001C47.8698 24.3967 50.7165 21.5268 53.6564 18.5401C54.3579 19.593 55.1379 20.5914 55.9898 21.5268C56.6042 22.1378 57.259 22.7068 57.9498 23.2301C58.9531 24.0234 60.0264 24.7001 61.0298 25.5634C61.0882 25.6254 61.16 25.6733 61.2398 25.7034C59.8631 27.2901 58.4398 28.8301 57.0164 30.3701C56.6293 29.8307 56.2084 29.3164 55.7564 28.8301C55.5096 28.5558 55.2446 28.2986 54.9631 28.0601C54.687 27.8239 54.3903 27.6131 54.0765 27.4301C53.3298 26.9867 52.5831 26.6834 51.7431 26.2634C51.6742 26.2006 51.5935 26.152 51.5058 26.1203C51.4181 26.0887 51.325 26.0746 51.2318 26.0789C51.0436 26.0877 50.8667 26.1708 50.7398 26.3101C50.6129 26.4493 50.5466 26.6332 50.5553 26.8214C50.5641 27.0096 50.6472 27.1865 50.7865 27.3134C51.268 28.0553 51.7981 28.7646 52.3731 29.4367C52.6298 29.6934 52.8865 29.9501 53.1665 30.1834L54.0531 30.7901L55.6864 31.7467L51.0198 36.7867C50.6091 36.2751 50.173 35.7845 49.7131 35.3167C49.4655 35.0722 49.2003 34.846 48.9198 34.64C48.6518 34.4311 48.3624 34.2512 48.0565 34.1034C47.3331 33.73 46.5865 33.52 45.7231 33.17C45.5707 33.0852 45.3927 33.0584 45.222 33.0945C45.0513 33.1305 44.8995 33.2271 44.7943 33.3663C44.6892 33.5055 44.6379 33.678 44.65 33.8521C44.662 34.0261 44.7365 34.1899 44.8598 34.3134C45.3484 34.9696 45.8701 35.6004 46.4231 36.2034C46.6714 36.433 46.9366 36.6436 47.2165 36.8334C47.4849 37.035 47.7744 37.2071 48.0798 37.3467L49.6198 38.14C48.2198 39.7967 46.6098 41.5233 45.0231 43.2267Z" fill="#618883"/>
</svg>
