<svg width="43" height="43" viewBox="0 0 43 43" fill="none" xmlns="http://www.w3.org/2000/svg">
<path d="M42.2316 5.60292C43.1419 1.67595 35.6093 -0.680238 31.8072 0.408604C28.8442 1.3368 27.9517 3.55018 28.7728 5.40657C28.4902 6.39846 28.5202 7.45337 28.8588 8.42758C29.1973 9.40179 29.828 10.2479 30.6649 10.8508C32.1585 11.7978 33.8952 12.2902 35.6635 12.268C37.4319 12.2458 39.1557 11.71 40.6251 10.7258C40.5033 11.1701 40.2936 11.5854 40.0084 11.9471C39.7233 12.3089 39.3685 12.6098 38.965 12.8321C38.2477 13.3925 37.4297 13.8106 36.5553 14.0638C36.4133 14.0827 36.2846 14.1573 36.1976 14.2711C36.1105 14.3849 36.0723 14.5286 36.0912 14.6707C36.1102 14.8127 36.1847 14.9414 36.2985 15.0284C36.4124 15.1154 36.5561 15.1537 36.6981 15.1348C38.1948 15.2546 39.6844 14.8299 40.8928 13.9388C41.5191 13.3716 41.9559 12.6256 42.1443 11.802C42.3327 10.9783 42.2634 10.1166 41.946 9.33354C42.2777 8.77573 42.4761 8.1488 42.5257 7.50168C42.5752 6.85455 42.4746 6.20473 42.2316 5.60292ZM32.4141 2.26499C34.2965 1.75573 36.2856 1.79911 38.144 2.38994C42.3208 3.62158 41.7139 6.12056 38.5366 6.83456C32.9139 8.11975 27.6304 3.94288 32.4141 2.26499ZM35.9841 10.226C34.5067 10.2819 33.0375 9.9819 31.7001 9.35139C31.2438 9.13719 30.8519 8.80672 30.5636 8.39315C30.2754 7.97958 30.101 7.49747 30.058 6.99521C31.6782 8.10614 33.5853 8.72427 35.5492 8.77495C37.513 8.82563 39.4495 8.30669 41.1249 7.28081C40.8214 9.51204 38.2511 10.1725 35.9127 10.226H35.9841Z" fill="#618883"/>
<path d="M12.0829 10.5472C13.6358 14.5813 21.0078 15.1167 24.2565 12.0823C24.9024 11.486 25.351 10.7068 25.5423 9.84882C25.7337 8.99085 25.6588 8.09491 25.3275 7.28065C26.2378 3.35368 18.7052 0.997496 14.8853 2.08634C11.9401 3.01453 11.0476 5.22792 11.8687 7.0843C11.6362 8.23748 11.7101 9.43145 12.0829 10.5472ZM23.1677 10.8506C20.9364 12.6356 14.3498 12.4036 13.261 9.51189C13.1827 9.25472 13.123 8.99224 13.0825 8.72649C14.7191 9.85151 16.6492 10.4729 18.6348 10.5142C20.6204 10.5554 22.5746 10.0146 24.2565 8.95854C24.2149 9.33185 24.0967 9.69255 23.9094 10.0181C23.722 10.3437 23.4695 10.6271 23.1677 10.8506ZM21.2399 4.12122C25.4346 5.35287 24.8099 7.85185 21.6326 8.58369C19.4353 9.07121 17.1366 8.7744 15.1352 7.74475C11.1369 5.33502 15.7064 2.49689 21.2399 4.12122Z" fill="#618883"/>
<path d="M3.1228 21.9178C3.2656 21.9178 8.12077 20.3649 8.26357 20.3114C8.19939 20.3667 8.14789 20.4351 8.11259 20.5122C8.07729 20.5892 8.05902 20.6729 8.05902 20.7576C8.05902 20.8423 8.07729 20.926 8.11259 21.0031C8.14789 21.0801 8.19939 21.1486 8.26357 21.2039C8.72766 21.7036 7.67452 22.9888 7.38892 23.328C6.85446 24.2008 6.19267 24.9889 5.42544 25.6663C4.85424 26.0412 4.83639 25.4521 4.64004 25.345C4.44369 25.2379 3.89035 24.2026 3.5869 24.0955C3.28345 23.9884 2.6587 24.4525 3.0514 25.0416C3.4441 25.6306 3.8368 26.0947 4.30089 26.7016C7.44247 32.6813 7.71022 33.4667 8.58486 34.3057C8.81137 34.5459 9.09033 34.7305 9.39997 34.845C9.70962 34.9596 10.0415 35.001 10.3699 34.9661C13.1009 34.8055 35.1276 27.5584 38.4834 26.0412C38.7262 25.9499 38.9462 25.8068 39.1281 25.6218C39.31 25.4369 39.4494 25.2145 39.5365 24.9702C39.8043 23.3101 31.0222 14.0104 28.2911 13.6712C26.5061 13.457 7.76377 18.8834 3.0871 20.8112C2.98775 20.8673 2.90565 20.9495 2.84973 21.0489C2.7938 21.1484 2.76618 21.2613 2.76986 21.3753C2.77353 21.4894 2.80837 21.6002 2.87059 21.6958C2.93281 21.7915 3.02004 21.8683 3.1228 21.9178ZM32.3966 26.1126C33.2458 24.6993 34.312 23.4283 35.556 22.3462C36.1485 22.9445 36.6533 23.6236 37.0554 24.3633C35.7702 24.8988 33.7175 25.6306 32.3966 26.1126ZM17.9203 17.7053C18.081 17.7053 27.2558 15.3491 28.0412 15.4562C29.3978 15.6525 33.3962 20.0436 34.3958 21.0789C31.6648 22.3462 30.5402 25.3093 31.04 26.5767C29.4514 27.1479 17.0814 31.4675 14.2611 32.4136C13.4222 28.4509 6.90697 28.5402 7.62097 30.1466C7.65264 30.2563 7.72222 30.3512 7.81732 30.4144C7.81732 30.4144 8.94186 30.5215 9.37026 30.7178C10.715 31.1256 11.9403 31.8547 12.9402 32.842C11.9595 33.2098 10.9321 33.4381 9.8879 33.5203C9.17391 33.3418 8.60271 32.1101 5.63963 26.8801C9.33456 26.1661 10.9946 21.5252 8.99541 20.2578C8.83476 20.0615 7.31752 20.4542 17.9203 17.7053Z" fill="#618883"/>
<path d="M16.9023 23.9347C17.6698 25.0592 19.1335 24.8272 20.4722 24.6308C22.6321 24.2917 22.757 25.2377 20.9006 25.8625C20.327 26.0616 19.7228 26.1583 19.1156 26.1481C18.9547 26.1315 18.7937 26.1795 18.6682 26.2816C18.5427 26.3837 18.4628 26.5315 18.4463 26.6925C18.4297 26.8534 18.4778 27.0144 18.5799 27.1399C18.6819 27.2655 18.8297 27.3453 18.9907 27.3619C19.8244 27.4927 20.6763 27.444 21.4897 27.2191C21.4897 27.8081 22.9355 28.8434 23.4353 28.5399C23.9351 28.2365 23.4353 26.6479 23.4353 26.5051V26.3801C25.0775 25.0235 23.9173 22.9708 22.1501 22.5781C20.9567 22.5405 19.7622 22.6062 18.5801 22.7744C18.0982 22.2211 17.0272 21.3286 20.9185 21.632C21.0605 21.6533 21.2052 21.6174 21.3207 21.532C21.4361 21.4466 21.513 21.3189 21.5343 21.1769C21.5556 21.0348 21.5196 20.8902 21.4343 20.7747C21.3489 20.6592 21.2212 20.5824 21.0791 20.5611C20.3939 20.3983 19.6945 20.3027 18.9907 20.2755C18.6158 19.2937 17.2057 18.6333 16.7595 18.8832C16.3132 19.1331 16.7595 20.4897 17.0094 20.8823C16.6987 21.1932 16.4768 21.5814 16.3668 22.0069C16.1347 22.6316 16.5631 23.3456 16.9023 23.9347Z" fill="#618883"/>
<path d="M23.669 18.1157C24.5878 19.0337 25.7264 19.701 26.9763 20.0541C28.2262 20.4072 29.5457 20.4343 30.809 20.1328C30.9699 20.1328 31.1243 20.0688 31.2381 19.955C31.3519 19.8412 31.4159 19.6868 31.4159 19.5259C31.4159 19.3649 31.3519 19.2105 31.2381 19.0967C31.1243 18.9829 30.9699 18.919 30.809 18.919C28.5277 18.502 26.3125 17.7816 24.2224 16.777C23.6333 16.42 22.4195 17.366 23.669 18.1157Z" fill="#618883"/>
<path d="M5.74776 35.2512C6.52851 36.4155 7.47913 37.4564 8.56804 38.3392C12.138 40.3206 35.3428 31.0208 39.1806 29.5392C39.3127 29.4677 39.4147 29.3508 39.4677 29.2102C39.5207 29.0695 39.5212 28.9145 39.4691 28.7735C39.4171 28.6325 39.3159 28.515 39.1842 28.4425C39.0525 28.37 38.8991 28.3475 38.7522 28.379C36.9672 29.0394 11.1206 37.6074 9.38913 36.7506C8.49615 36.0416 7.69294 35.2264 6.99725 34.323C5.10516 31.9311 3.19522 27.3615 2.28488 27.4686C2.20376 27.4711 2.12426 27.492 2.05239 27.5297C1.98052 27.5674 1.91816 27.6209 1.87002 27.6862C1.82187 27.7516 1.78921 27.827 1.7745 27.9068C1.75979 27.9866 1.76341 28.0687 1.78508 28.1469C2.98421 30.5809 4.30682 32.9521 5.74776 35.2512Z" fill="#618883"/>
<path d="M39.3404 32.396C37.3591 33.11 10.3701 41.9814 8.3709 41.1068C7.43568 40.4105 6.5903 39.6011 5.85407 38.697C3.96199 36.4479 2.37335 33.1636 1.463 32.1461C1.05246 31.682 0.302761 31.9319 0.44556 32.5924C0.44556 32.9137 1.2488 33.6991 1.69505 34.5737C1.9271 34.9843 2.1056 35.4305 2.30195 35.8589C3.35726 37.982 4.72956 39.9321 6.37172 41.6423C6.70005 42.1277 7.15974 42.5096 7.69707 42.7435C8.2344 42.9774 8.82719 43.0536 9.4062 42.9631C16.5461 42.5526 33.1644 36.1088 39.751 33.5563C39.879 33.484 39.9775 33.369 40.0291 33.2314C40.0806 33.0937 40.082 32.9423 40.033 32.8037C39.984 32.6651 39.8876 32.5483 39.761 32.4737C39.6343 32.3992 39.4854 32.3716 39.3404 32.396Z" fill="#618883"/>
</svg>
