<?xml version="1.0" encoding="UTF-8"?>
<svg id="Capa_2" data-name="Capa 2" xmlns="http://www.w3.org/2000/svg" viewBox="0 0 44.38 44.38">
  <defs>
    <style>
      .cls-1 {
        fill: #fff;
      }

      .cls-2 {
        fill: #2c9896;
        fill-rule: evenodd;
        stroke: #2c9896;
        stroke-miterlimit: 10;
        stroke-width: .5px;
      }
    </style>
  </defs>
  <g id="Capa_1-2" data-name="Capa 1">
    <circle class="cls-1" cx="22.19" cy="22.19" r="22.19"/>
    <path class="cls-2" d="M21.67,14.22c-.38.18-.74.41-1.07.69-1.8,1.95-3.3,4.16-4.45,6.56,0,.16-.08.34-.13.51-.02.06-.02.13,0,.2-.47,1.99-1.05,3.95-1.73,5.87-.52,1.3-1.17,2.54-1.92,3.71-1.14,1.79-2.38,3.52-3.72,5.17-.05.05-.09.11-.12.18-.03.07-.04.14-.04.21s.01.15.04.21c.03.07.07.13.12.18.11.1.24.16.39.16s.28-.06.39-.16c1.44-1.62,2.79-3.33,4.04-5.1.86-1.21,1.62-2.49,2.25-3.84.63-1.48,1.17-3.01,1.62-4.56.33.36.71.67,1.12.94.43.26.9.42,1.4.48.49.05.99,0,1.47-.17.3-.11.59-.27.86-.46.26-.19.51-.41.73-.66l.66.39c.89.37,1.84.54,2.8.51.7-.05,1.39-.24,2.02-.54.78,1.95,1.62,3.92,2.44,5.82,1.06,2.4,2.41,4.65,4.01,6.71.11.1.25.17.4.17.15,0,.3-.04.42-.13.12-.09.2-.23.23-.37.03-.15,0-.3-.06-.44-1.45-2.03-2.66-4.24-3.59-6.56-1.49-3.53-2.6-7.27-4.04-10.8-.36-.84-.73-1.64-1.15-2.48-.79-.99-1.72-1.86-2.77-2.58-.24-.18-.53-.28-.82-.3h-.26c-.52.11-1.03.27-1.52.46ZM26.31,23.6c-.7-.09-1.38-.32-1.99-.69-.31-.22-.62-.45-.91-.71-.16-.09-.34-.17-.52-.23-.18-.05-.38-.06-.56,0-.18.05-.35.14-.49.27-.14.14-.28.3-.4.46-.15.19-.31.36-.5.51-.14.14-.3.25-.49.33-.26.11-.54.16-.82.14-.28-.02-.55-.11-.8-.25-.35-.18-.67-.39-.97-.64,0-.2.13-.41.21-.62,1.41-2.29,3.09-4.4,5.01-6.27,0,.28,2.93,3.28,3.23,4,.53,1.16,1,2.36,1.47,3.56-.48.14-.99.19-1.49.15Z"/>
    <path class="cls-2" d="M21.11,10.54c.08.44.16,1.08.26,1.64.4.74,1.42,1.33,1.73-.3v-.21c.88-.05,1.75-.18,2.6-.41.44-.12.88-.28,1.29-.48.41-.21.81-.44,1.2-.69.89-.62,1.7-1.34,2.43-2.15,2.02-1.84,1.88-1.03-2.52-3.41-.73-.43-1.48-.82-2.25-1.16-1.35-.59-2.78-.99-4.24-1.18-.07-.02-.14-.03-.21-.02-.07,0-.14.03-.2.07-.06.04-.12.09-.16.14-.04.06-.07.12-.09.2-.03.11-.02.23.03.33.05.1.13.19.23.24-.13.03-.24.1-.32.21-.08.1-.12.23-.12.37,0,1.44-.11,2.86,0,4.3.06.84.21,1.67.34,2.51ZM24.55,5.05c.72.43,1.48.82,2.25,1.15.9.38,1.84.69,2.8.9-.41.26-.84.5-1.28.72-.49.26-1,.44-1.5.67-.5.23-1,.44-1.49.69-.75.38-1.51.74-2.28,1.08-.01-.48-.05-.96-.11-1.44-.05-.55-.13-1.1-.24-1.64-.24-1.23-.58-2.4-.86-3.61v-.13c.92.51,1.81,1.08,2.72,1.61Z"/>
  </g>
</svg>